<?xml version="1.0" encoding="UTF-8" standalone="no"?><svg xmlns="http://www.w3.org/2000/svg" xmlns:xlink="http://www.w3.org/1999/xlink" contentScriptType="application/ecmascript" contentStyleType="text/css" height="875px" preserveAspectRatio="none" style="width:599px;height:875px;" version="1.1" viewBox="0 0 599 875" width="599px" zoomAndPan="magnify"><defs><filter height="300%" id="f1fulfpo4217it" width="300%" x="-1" y="-1"><feGaussianBlur result="blurOut" stdDeviation="2.0"/><feColorMatrix in="blurOut" result="blurOut2" type="matrix" values="0 0 0 0 0 0 0 0 0 0 0 0 0 0 0 0 0 0 .4 0"/><feOffset dx="4.0" dy="4.0" in="blurOut2" result="blurOut3"/><feBlend in="SourceGraphic" in2="blurOut3" mode="normal"/></filter></defs><g><rect fill="#FEFECE" filter="url(#f1fulfpo4217it)" height="28" style="stroke: #A80036; stroke-width: 1.5;" width="63" x="284" y="60"/><text fill="#000000" font-family="sans-serif" font-size="14" lengthAdjust="spacingAndGlyphs" textLength="49" x="291" y="79.3184">Spawner</text><rect fill="#FEFECE" filter="url(#f1fulfpo4217it)" height="28" style="stroke: #A80036; stroke-width: 1.5;" width="63" x="361" y="184"/><text fill="#000000" font-family="sans-serif" font-size="14" lengthAdjust="spacingAndGlyphs" textLength="49" x="368" y="203.3184">Factory</text><rect fill="#FFFFFF" filter="url(#f1fulfpo4217it)" height="572" style="stroke: #000000; stroke-width: 2.0;" width="564" x="13" y="274"/><rect fill="#FFFFFF" filter="url(#f1fulfpo4217it)" height="489" style="stroke: #000000; stroke-width: 2.0;" width="544" x="23" y="350"/><rect fill="#FFFFFF" filter="url(#f1fulfpo4217it)" height="92" style="stroke: #000000; stroke-width: 2.0;" width="282" x="145" y="504"/><line style="stroke: #A80036; stroke-width: 1.0; stroke-dasharray: 5.0,5.0;" x1="73" x2="73" y1="50" y2="863"/><line style="stroke: #A80036; stroke-width: 1.0; stroke-dasharray: 5.0,5.0;" x1="181" x2="181" y1="50" y2="863"/><line style="stroke: #A80036; stroke-width: 1.0; stroke-dasharray: 5.0,5.0;" x1="317" x2="317" y1="91.5" y2="863"/><line style="stroke: #A80036; stroke-width: 1.0; stroke-dasharray: 5.0,5.0;" x1="394" x2="394" y1="215.5" y2="863"/><rect fill="#FEFECE" filter="url(#f1fulfpo4217it)" height="42" style="stroke: #A80036; stroke-width: 1.5;" width="77" x="33" y="3"/><text fill="#000000" font-family="sans-serif" font-size="14" lengthAdjust="spacingAndGlyphs" textLength="63" x="40" y="22.3184">Main loop</text><text fill="#000000" font-family="sans-serif" font-size="14" lengthAdjust="spacingAndGlyphs" textLength="49" x="47" y="36.3184">(Drive)</text><rect fill="#FEFECE" filter="url(#f1fulfpo4217it)" height="42" style="stroke: #A80036; stroke-width: 1.5;" width="49" x="155" y="3"/><text fill="#000000" font-family="sans-serif" font-size="14" lengthAdjust="spacingAndGlyphs" textLength="35" x="162" y="22.3184">Event</text><text fill="#000000" font-family="sans-serif" font-size="14" lengthAdjust="spacingAndGlyphs" textLength="35" x="162" y="36.3184">Queue</text><polygon fill="#A80036" points="272,75,282,79,272,83,276,79" style="stroke: #A80036; stroke-width: 1.0;"/><line style="stroke: #A80036; stroke-width: 1.0;" x1="73.5" x2="278" y1="79" y2="79"/><text fill="#000000" font-family="sans-serif" font-size="13" lengthAdjust="spacingAndGlyphs" textLength="182" x="80.5" y="75.4385">new Spawner(frame counter)</text><rect fill="#FEFECE" filter="url(#f1fulfpo4217it)" height="28" style="stroke: #A80036; stroke-width: 1.5;" width="63" x="284" y="60"/><text fill="#000000" font-family="sans-serif" font-size="14" lengthAdjust="spacingAndGlyphs" textLength="49" x="291" y="79.3184">Spawner</text><polygon fill="#A80036" points="84.5,118,74.5,122,84.5,126,80.5,122" style="stroke: #A80036; stroke-width: 1.0;"/><line style="stroke: #A80036; stroke-width: 1.0;" x1="78.5" x2="316.5" y1="122" y2="122"/><text fill="#000000" font-family="sans-serif" font-size="13" lengthAdjust="spacingAndGlyphs" textLength="105" x="90.5" y="118.4385">event subscribe</text><polygon fill="#A80036" points="305.5,145,315.5,149,305.5,153,309.5,149" style="stroke: #A80036; stroke-width: 1.0;"/><line style="stroke: #A80036; stroke-width: 1.0;" x1="73.5" x2="311.5" y1="149" y2="149"/><text fill="#000000" font-family="sans-serif" font-size="13" lengthAdjust="spacingAndGlyphs" textLength="21" x="80.5" y="145.4385">run</text><polygon fill="#A80036" points="192.5,172,182.5,176,192.5,180,188.5,176" style="stroke: #A80036; stroke-width: 1.0;"/><line style="stroke: #A80036; stroke-width: 1.0;" x1="186.5" x2="316.5" y1="176" y2="176"/><text fill="#000000" font-family="sans-serif" font-size="13" lengthAdjust="spacingAndGlyphs" textLength="112" x="198.5" y="172.4385">push(JudgeSpawn)</text><polygon fill="#A80036" points="349,199,359,203,349,207,353,203" style="stroke: #A80036; stroke-width: 1.0;"/><line style="stroke: #A80036; stroke-width: 1.0;" x1="73.5" x2="355" y1="203" y2="203"/><text fill="#000000" font-family="sans-serif" font-size="13" lengthAdjust="spacingAndGlyphs" textLength="77" x="80.5" y="199.4385">new Factory</text><rect fill="#FEFECE" filter="url(#f1fulfpo4217it)" height="28" style="stroke: #A80036; stroke-width: 1.5;" width="63" x="361" y="184"/><text fill="#000000" font-family="sans-serif" font-size="14" lengthAdjust="spacingAndGlyphs" textLength="49" x="368" y="203.3184">Factory</text><line style="stroke: #A80036; stroke-width: 1.0;" x1="394.5" x2="436.5" y1="246" y2="246"/><line style="stroke: #A80036; stroke-width: 1.0;" x1="436.5" x2="436.5" y1="246" y2="259"/><line style="stroke: #A80036; stroke-width: 1.0;" x1="395.5" x2="436.5" y1="259" y2="259"/><polygon fill="#A80036" points="405.5,255,395.5,259,405.5,263,401.5,259" style="stroke: #A80036; stroke-width: 1.0;"/><text fill="#000000" font-family="sans-serif" font-size="13" lengthAdjust="spacingAndGlyphs" textLength="105" x="401.5" y="242.4385">event subscribe</text><path d="M13,274 L90,274 L90,279 L80,289 L13,289 L13,274 " fill="#EEEEEE" style="stroke: #000000; stroke-width: 1.0;"/><rect fill="none" height="572" style="stroke: #000000; stroke-width: 2.0;" width="564" x="13" y="274"/><text fill="#000000" font-family="sans-serif" font-size="13" font-weight="bold" lengthAdjust="spacingAndGlyphs" textLength="32" x="28" y="286.4385">loop</text><text fill="#000000" font-family="sans-serif" font-size="11" font-weight="bold" lengthAdjust="spacingAndGlyphs" textLength="108" x="105" y="285.6787">[while game scene]</text><polygon fill="#A80036" points="169.5,304,179.5,308,169.5,312,173.5,308" style="stroke: #A80036; stroke-width: 1.0;"/><line style="stroke: #A80036; stroke-width: 1.0;" x1="73.5" x2="175.5" y1="308" y2="308"/><text fill="#000000" font-family="sans-serif" font-size="13" lengthAdjust="spacingAndGlyphs" textLength="84" x="80.5" y="304.4385">fetch events</text><polygon fill="#A80036" points="84.5,331,74.5,335,84.5,339,80.5,335" style="stroke: #A80036; stroke-width: 1.0;"/><line style="stroke: #A80036; stroke-width: 1.0;" x1="78.5" x2="180.5" y1="335" y2="335"/><text fill="#000000" font-family="sans-serif" font-size="13" lengthAdjust="spacingAndGlyphs" textLength="42" x="90.5" y="331.4385">events</text><path d="M23,350 L100,350 L100,355 L90,365 L23,365 L23,350 " fill="#EEEEEE" style="stroke: #000000; stroke-width: 1.0;"/><rect fill="none" height="489" style="stroke: #000000; stroke-width: 2.0;" width="544" x="23" y="350"/><text fill="#000000" font-family="sans-serif" font-size="13" font-weight="bold" lengthAdjust="spacingAndGlyphs" textLength="32" x="38" y="362.4385">loop</text><text fill="#000000" font-family="sans-serif" font-size="11" font-weight="bold" lengthAdjust="spacingAndGlyphs" textLength="78" x="115" y="361.6787">[len(events)]</text><rect fill="#EEEEEE" filter="url(#f1fulfpo4217it)" height="3" style="stroke: #EEEEEE; stroke-width: 1.0;" width="584" x="3" y="384.5"/><line style="stroke: #000000; stroke-width: 1.0;" x1="3" x2="587" y1="384.5" y2="384.5"/><line style="stroke: #000000; stroke-width: 1.0;" x1="3" x2="587" y1="387.5" y2="387.5"/><rect fill="#EEEEEE" filter="url(#f1fulfpo4217it)" height="21" style="stroke: #000000; stroke-width: 2.0;" width="174" x="208" y="375"/><text fill="#000000" font-family="sans-serif" font-size="13" font-weight="bold" lengthAdjust="spacingAndGlyphs" textLength="152" x="214" y="390.4385">event is JudgeSpawn</text><polygon fill="#A80036" points="305.5,421,315.5,425,305.5,429,309.5,425" style="stroke: #A80036; stroke-width: 1.0;"/><line style="stroke: #A80036; stroke-width: 1.0;" x1="73.5" x2="311.5" y1="425" y2="425"/><text fill="#000000" font-family="sans-serif" font-size="13" lengthAdjust="spacingAndGlyphs" textLength="91" x="80.5" y="421.4385">event publish</text><polygon fill="#A80036" points="382.5,448,392.5,452,382.5,456,386.5,452" style="stroke: #A80036; stroke-width: 1.0;"/><line style="stroke: #A80036; stroke-width: 1.0;" x1="73.5" x2="388.5" y1="452" y2="452"/><text fill="#000000" font-family="sans-serif" font-size="13" lengthAdjust="spacingAndGlyphs" textLength="91" x="80.5" y="448.4385">event publish</text><path d="M399,465 L399,488 L462,488 L462,475 L452,465 L399,465 " fill="#FBFB77" filter="url(#f1fulfpo4217it)" style="stroke: #A80036; stroke-width: 1.0;"/><path d="M452,465 L452,475 L462,475 L452,465 " fill="#FBFB77" style="stroke: #A80036; stroke-width: 1.0;"/><text fill="#000000" font-family="sans-serif" font-size="13" lengthAdjust="spacingAndGlyphs" textLength="42" x="405" y="481.4385">ignore</text><path d="M145,504 L214,504 L214,509 L204,519 L145,519 L145,504 " fill="#EEEEEE" style="stroke: #000000; stroke-width: 1.0;"/><rect fill="none" height="92" style="stroke: #000000; stroke-width: 2.0;" width="282" x="145" y="504"/><text fill="#000000" font-family="sans-serif" font-size="13" font-weight="bold" lengthAdjust="spacingAndGlyphs" textLength="24" x="160" y="516.4385">alt</text><path d="M322,524 L322,560 L413,560 L413,534 L403,524 L322,524 " fill="#FBFB77" filter="url(#f1fulfpo4217it)" style="stroke: #A80036; stroke-width: 1.0;"/><path d="M403,524 L403,534 L413,534 L403,524 " fill="#FBFB77" style="stroke: #A80036; stroke-width: 1.0;"/><text fill="#000000" font-family="sans-serif" font-size="13" lengthAdjust="spacingAndGlyphs" textLength="70" x="328" y="540.4385">push event</text><text fill="#000000" font-family="sans-serif" font-size="13" lengthAdjust="spacingAndGlyphs" textLength="63" x="328" y="553.4385">in random</text><polygon fill="#A80036" points="192.5,584,182.5,588,192.5,592,188.5,588" style="stroke: #A80036; stroke-width: 1.0;"/><line style="stroke: #A80036; stroke-width: 1.0;" x1="186.5" x2="316.5" y1="588" y2="588"/><text fill="#000000" font-family="sans-serif" font-size="13" lengthAdjust="spacingAndGlyphs" textLength="77" x="198.5" y="584.4385">push(Spawn)</text><polygon fill="#A80036" points="192.5,618,182.5,622,192.5,626,188.5,622" style="stroke: #A80036; stroke-width: 1.0;"/><line style="stroke: #A80036; stroke-width: 1.0;" x1="186.5" x2="316.5" y1="622" y2="622"/><text fill="#000000" font-family="sans-serif" font-size="13" lengthAdjust="spacingAndGlyphs" textLength="112" x="198.5" y="618.4385">push(JudgeSpawn)</text><rect fill="#EEEEEE" filter="url(#f1fulfpo4217it)" height="3" style="stroke: #EEEEEE; stroke-width: 1.0;" width="584" x="3" y="649.5"/><line style="stroke: #000000; stroke-width: 1.0;" x1="3" x2="587" y1="649.5" y2="649.5"/><line style="stroke: #000000; stroke-width: 1.0;" x1="3" x2="587" y1="652.5" y2="652.5"/><rect fill="#EEEEEE" filter="url(#f1fulfpo4217it)" height="21" style="stroke: #000000; stroke-width: 2.0;" width="134" x="228" y="640"/><text fill="#000000" font-family="sans-serif" font-size="13" font-weight="bold" lengthAdjust="spacingAndGlyphs" textLength="112" x="234" y="655.4385">event is Spawn</text><polygon fill="#A80036" points="305.5,686,315.5,690,305.5,694,309.5,690" style="stroke: #A80036; stroke-width: 1.0;"/><line style="stroke: #A80036; stroke-width: 1.0;" x1="73.5" x2="311.5" y1="690" y2="690"/><text fill="#000000" font-family="sans-serif" font-size="13" lengthAdjust="spacingAndGlyphs" textLength="91" x="80.5" y="686.4385">event publish</text><path d="M322,703 L322,726 L385,726 L385,713 L375,703 L322,703 " fill="#FBFB77" filter="url(#f1fulfpo4217it)" style="stroke: #A80036; stroke-width: 1.0;"/><path d="M375,703 L375,713 L385,713 L375,703 " fill="#FBFB77" style="stroke: #A80036; stroke-width: 1.0;"/><text fill="#000000" font-family="sans-serif" font-size="13" lengthAdjust="spacingAndGlyphs" textLength="42" x="328" y="719.4385">ignore</text><polygon fill="#A80036" points="382.5,750,392.5,754,382.5,758,386.5,754" style="stroke: #A80036; stroke-width: 1.0;"/><line style="stroke: #A80036; stroke-width: 1.0;" x1="73.5" x2="388.5" y1="754" y2="754"/><text fill="#000000" font-family="sans-serif" font-size="13" lengthAdjust="spacingAndGlyphs" textLength="91" x="80.5" y="750.4385">event publish</text><line style="stroke: #A80036; stroke-width: 1.0;" x1="394.5" x2="436.5" y1="781" y2="781"/><line style="stroke: #A80036; stroke-width: 1.0;" x1="436.5" x2="436.5" y1="781" y2="794"/><line style="stroke: #A80036; stroke-width: 1.0;" x1="395.5" x2="436.5" y1="794" y2="794"/><polygon fill="#A80036" points="405.5,790,395.5,794,405.5,798,401.5,794" style="stroke: #A80036; stroke-width: 1.0;"/><text fill="#000000" font-family="sans-serif" font-size="13" lengthAdjust="spacingAndGlyphs" textLength="49" x="401.5" y="777.4385">spawn()</text><path d="M399,807 L399,830 L553,830 L553,817 L543,807 L399,807 " fill="#FBFB77" filter="url(#f1fulfpo4217it)" style="stroke: #A80036; stroke-width: 1.0;"/><path d="M543,807 L543,817 L553,817 L543,807 " fill="#FBFB77" style="stroke: #A80036; stroke-width: 1.0;"/><text fill="#000000" font-family="sans-serif" font-size="13" lengthAdjust="spacingAndGlyphs" textLength="133" x="405" y="823.4385">spawn a new balloon</text><!--
@startuml

hide footbox

participant "Main loop\n(Drive)" as m
participant "Event\nQueue"       as eq
participant Spawner              as s
participant Factory              as f

create s
m -> s : new Spawner(frame counter)
s -> m : event subscribe
m -> s : run
eq <- s : push(JudgeSpawn)
create f
m -> f : new Factory
f -> f : event subscribe
loop while game scene
  m -> eq : fetch events
  m <- eq : events
  loop len(events)
  == event is JudgeSpawn ==
    m -> s : event publish
    m -> f : event publish
    note right of f : ignore
    alt
      note right of s : push event\nin random
      s -> eq : push(Spawn)
    end
    s -> eq : push(JudgeSpawn)
  == event is Spawn ==
    m -> s : event publish
    note right of s : ignore
    m -> f : event publish
    f -> f : spawn()
    note right of f : spawn a new balloon
  end
end

@enduml

PlantUML version 1.2018.02(Sat Mar 10 02:20:44 JST 2018)
(GPL source distribution)
Java Runtime: OpenJDK Runtime Environment
JVM: OpenJDK 64-Bit Server VM
Java Version: 1.8.0_162-b12
Operating System: Linux
OS Version: 4.12.14-1-MANJARO
Default Encoding: UTF-8
Language: en
Country: US
--></g></svg>