<?xml version="1.0" encoding="UTF-8" standalone="no"?><svg xmlns="http://www.w3.org/2000/svg" xmlns:xlink="http://www.w3.org/1999/xlink" contentScriptType="application/ecmascript" contentStyleType="text/css" height="190px" preserveAspectRatio="none" style="width:601px;height:190px;" version="1.1" viewBox="0 0 601 190" width="601px" zoomAndPan="magnify"><defs><filter height="300%" id="fhiaypg9apzpk" width="300%" x="-1" y="-1"><feGaussianBlur result="blurOut" stdDeviation="2.0"/><feColorMatrix in="blurOut" result="blurOut2" type="matrix" values="0 0 0 0 0 0 0 0 0 0 0 0 0 0 0 0 0 0 .4 0"/><feOffset dx="4.0" dy="4.0" in="blurOut2" result="blurOut3"/><feBlend in="SourceGraphic" in2="blurOut3" mode="normal"/></filter></defs><g><!--class eventQueue--><rect fill="#FEFECE" filter="url(#fhiaypg9apzpk)" height="48" id="eventQueue" style="stroke: #A80036; stroke-width: 1.5;" width="92" x="258" y="8"/><ellipse cx="273" cy="24" fill="#ADD1B2" rx="11" ry="11" style="stroke: #A80036; stroke-width: 1.0;"/><path d="M276.3906,25.9844 Q275.9688,30.9688 272.6563,30.9688 Q270.7031,30.9688 269.6563,28.9688 Q268.7813,27.2969 268.7813,24.3594 Q268.7813,21.3438 269.75,19.5781 Q270.75,17.7031 272.6563,17.7031 Q275.6875,17.7031 276.3125,22.1406 L274.2344,22.1406 Q273.875,19.6719 272.6563,19.6719 Q270.9219,19.6719 270.9219,24.3594 Q270.9219,29 272.6719,29 Q274.1094,29 274.2656,25.9844 L276.3906,25.9844 Z "/><text fill="#000000" font-family="sans-serif" font-size="12" lengthAdjust="spacingAndGlyphs" textLength="60" x="287" y="28.5586">eventQueue</text><line style="stroke: #A80036; stroke-width: 1.5;" x1="259" x2="349" y1="40" y2="40"/><line style="stroke: #A80036; stroke-width: 1.5;" x1="259" x2="349" y1="48" y2="48"/><!--class game--><rect fill="#FEFECE" filter="url(#fhiaypg9apzpk)" height="48" id="game" style="stroke: #A80036; stroke-width: 1.5;" width="56" x="6" y="131"/><ellipse cx="21" cy="147" fill="#ADD1B2" rx="11" ry="11" style="stroke: #A80036; stroke-width: 1.0;"/><path d="M24.3906,148.9844 Q23.9688,153.9688 20.6563,153.9688 Q18.7031,153.9688 17.6563,151.9688 Q16.7813,150.2969 16.7813,147.3594 Q16.7813,144.3438 17.75,142.5781 Q18.75,140.7031 20.6563,140.7031 Q23.6875,140.7031 24.3125,145.1406 L22.2344,145.1406 Q21.875,142.6719 20.6563,142.6719 Q18.9219,142.6719 18.9219,147.3594 Q18.9219,152 20.6719,152 Q22.1094,152 22.2656,148.9844 L24.3906,148.9844 Z "/><text fill="#000000" font-family="sans-serif" font-size="12" lengthAdjust="spacingAndGlyphs" textLength="24" x="35" y="151.5586">game</text><line style="stroke: #A80036; stroke-width: 1.5;" x1="7" x2="61" y1="163" y2="163"/><line style="stroke: #A80036; stroke-width: 1.5;" x1="7" x2="61" y1="171" y2="171"/><!--class spawner--><rect fill="#FEFECE" filter="url(#fhiaypg9apzpk)" height="48" id="spawner" style="stroke: #A80036; stroke-width: 1.5;" width="74" x="118" y="131"/><ellipse cx="133" cy="147" fill="#ADD1B2" rx="11" ry="11" style="stroke: #A80036; stroke-width: 1.0;"/><path d="M136.3906,148.9844 Q135.9688,153.9688 132.6563,153.9688 Q130.7031,153.9688 129.6563,151.9688 Q128.7813,150.2969 128.7813,147.3594 Q128.7813,144.3438 129.75,142.5781 Q130.75,140.7031 132.6563,140.7031 Q135.6875,140.7031 136.3125,145.1406 L134.2344,145.1406 Q133.875,142.6719 132.6563,142.6719 Q130.9219,142.6719 130.9219,147.3594 Q130.9219,152 132.6719,152 Q134.1094,152 134.2656,148.9844 L136.3906,148.9844 Z "/><text fill="#000000" font-family="sans-serif" font-size="12" lengthAdjust="spacingAndGlyphs" textLength="42" x="147" y="151.5586">spawner</text><line style="stroke: #A80036; stroke-width: 1.5;" x1="119" x2="191" y1="163" y2="163"/><line style="stroke: #A80036; stroke-width: 1.5;" x1="119" x2="191" y1="171" y2="171"/><!--class factory--><rect fill="#FEFECE" filter="url(#fhiaypg9apzpk)" height="48" id="factory" style="stroke: #A80036; stroke-width: 1.5;" width="74" x="244" y="131"/><ellipse cx="259" cy="147" fill="#ADD1B2" rx="11" ry="11" style="stroke: #A80036; stroke-width: 1.0;"/><path d="M262.3906,148.9844 Q261.9688,153.9688 258.6563,153.9688 Q256.7031,153.9688 255.6563,151.9688 Q254.7813,150.2969 254.7813,147.3594 Q254.7813,144.3438 255.75,142.5781 Q256.75,140.7031 258.6563,140.7031 Q261.6875,140.7031 262.3125,145.1406 L260.2344,145.1406 Q259.875,142.6719 258.6563,142.6719 Q256.9219,142.6719 256.9219,147.3594 Q256.9219,152 258.6719,152 Q260.1094,152 260.2656,148.9844 L262.3906,148.9844 Z "/><text fill="#000000" font-family="sans-serif" font-size="12" lengthAdjust="spacingAndGlyphs" textLength="42" x="273" y="151.5586">factory</text><line style="stroke: #A80036; stroke-width: 1.5;" x1="245" x2="317" y1="163" y2="163"/><line style="stroke: #A80036; stroke-width: 1.5;" x1="245" x2="317" y1="171" y2="171"/><!--class balloon--><rect fill="#FEFECE" filter="url(#fhiaypg9apzpk)" height="48" id="balloon" style="stroke: #A80036; stroke-width: 1.5;" width="74" x="372" y="131"/><ellipse cx="387" cy="147" fill="#ADD1B2" rx="11" ry="11" style="stroke: #A80036; stroke-width: 1.0;"/><path d="M390.3906,148.9844 Q389.9688,153.9688 386.6563,153.9688 Q384.7031,153.9688 383.6563,151.9688 Q382.7813,150.2969 382.7813,147.3594 Q382.7813,144.3438 383.75,142.5781 Q384.75,140.7031 386.6563,140.7031 Q389.6875,140.7031 390.3125,145.1406 L388.2344,145.1406 Q387.875,142.6719 386.6563,142.6719 Q384.9219,142.6719 384.9219,147.3594 Q384.9219,152 386.6719,152 Q388.1094,152 388.2656,148.9844 L390.3906,148.9844 Z "/><text fill="#000000" font-family="sans-serif" font-size="12" lengthAdjust="spacingAndGlyphs" textLength="42" x="401" y="151.5586">balloon</text><line style="stroke: #A80036; stroke-width: 1.5;" x1="373" x2="445" y1="163" y2="163"/><line style="stroke: #A80036; stroke-width: 1.5;" x1="373" x2="445" y1="171" y2="171"/><!--class scorer--><rect fill="#FEFECE" filter="url(#fhiaypg9apzpk)" height="48" id="scorer" style="stroke: #A80036; stroke-width: 1.5;" width="68" x="522" y="131"/><ellipse cx="537" cy="147" fill="#ADD1B2" rx="11" ry="11" style="stroke: #A80036; stroke-width: 1.0;"/><path d="M540.3906,148.9844 Q539.9688,153.9688 536.6563,153.9688 Q534.7031,153.9688 533.6563,151.9688 Q532.7813,150.2969 532.7813,147.3594 Q532.7813,144.3438 533.75,142.5781 Q534.75,140.7031 536.6563,140.7031 Q539.6875,140.7031 540.3125,145.1406 L538.2344,145.1406 Q537.875,142.6719 536.6563,142.6719 Q534.9219,142.6719 534.9219,147.3594 Q534.9219,152 536.6719,152 Q538.1094,152 538.2656,148.9844 L540.3906,148.9844 Z "/><text fill="#000000" font-family="sans-serif" font-size="12" lengthAdjust="spacingAndGlyphs" textLength="36" x="551" y="151.5586">scorer</text><line style="stroke: #A80036; stroke-width: 1.5;" x1="523" x2="589" y1="163" y2="163"/><line style="stroke: #A80036; stroke-width: 1.5;" x1="523" x2="589" y1="171" y2="171"/><!--link eventQueue to game--><path d="M257.9755,33.8048 C185.0082,37.7402 47.9482,49.8681 18,86 C8.7745,97.1304 11.3965,112.5895 16.9301,126.0542 " fill="none" id="eventQueue-game" style="stroke: #A80036; stroke-width: 1.0;"/><polygon fill="#A80036" points="19.084,130.913,19.0932,121.0641,17.0576,126.342,11.7797,124.3064,19.084,130.913" style="stroke: #A80036; stroke-width: 1.0;"/><text fill="#000000" font-family="sans-serif" font-size="13" lengthAdjust="spacingAndGlyphs" textLength="21" x="19" y="98.4385">pub</text><!--link game to eventQueue--><path d="M54.0585,130.7298 C67.5864,115.8246 86.6327,97.4566 107,86 C152.7401,60.2713 211.4279,46.2437 252.8098,38.9867 " fill="none" id="game-eventQueue" style="stroke: #A80036; stroke-width: 1.0;"/><polygon fill="#A80036" points="257.7685,38.135,248.2212,35.7166,252.8407,38.9816,249.5757,43.6011,257.7685,38.135" style="stroke: #A80036; stroke-width: 1.0;"/><text fill="#000000" font-family="sans-serif" font-size="13" lengthAdjust="spacingAndGlyphs" textLength="21" x="108" y="98.4385">sub</text><!--link eventQueue to spawner--><path d="M257.9489,41.3192 C215.6547,50.9235 157.5497,67.1263 144,86 C135.7462,97.4968 137.3005,112.8461 141.4373,126.1484 " fill="none" id="eventQueue-spawner" style="stroke: #A80036; stroke-width: 1.0;"/><polygon fill="#A80036" points="143.0648,130.9457,143.9612,121.1377,141.4584,126.2108,136.3853,123.708,143.0648,130.9457" style="stroke: #A80036; stroke-width: 1.0;"/><text fill="#000000" font-family="sans-serif" font-size="13" lengthAdjust="spacingAndGlyphs" textLength="21" x="145" y="98.4385">pub</text><!--link spawner to eventQueue--><path d="M182.9143,130.811 C198.4369,117.4639 218.1668,100.6692 236,86 C246.5864,77.2918 258.2315,67.9571 268.8475,59.5395 " fill="none" id="spawner-eventQueue" style="stroke: #A80036; stroke-width: 1.0;"/><polygon fill="#A80036" points="273.0158,56.2394,263.4767,58.6899,269.0957,59.3431,268.4426,64.9621,273.0158,56.2394" style="stroke: #A80036; stroke-width: 1.0;"/><text fill="#000000" font-family="sans-serif" font-size="13" lengthAdjust="spacingAndGlyphs" textLength="21" x="237" y="98.4385">sub</text><!--link eventQueue to factory--><path d="M284.7529,56.1287 C278.8149,64.9991 273.0411,75.4623 270,86 C266.3212,98.7474 267.7938,113.1975 270.6875,125.5684 " fill="none" id="eventQueue-factory" style="stroke: #A80036; stroke-width: 1.0;"/><polygon fill="#A80036" points="272.0038,130.7319,273.6566,121.0227,270.7686,125.8869,265.9045,122.999,272.0038,130.7319" style="stroke: #A80036; stroke-width: 1.0;"/><text fill="#000000" font-family="sans-serif" font-size="13" lengthAdjust="spacingAndGlyphs" textLength="21" x="271" y="98.4385">pub</text><!--link factory to eventQueue--><path d="M289.2273,130.7789 C292.0823,121.5526 295.0527,110.8811 297,101 C299.5464,88.0791 301.1947,73.6038 302.2475,61.2609 " fill="none" id="factory-eventQueue" style="stroke: #A80036; stroke-width: 1.0;"/><polygon fill="#A80036" points="302.6631,56.1123,297.9517,64.7612,302.2607,61.0961,305.9258,65.405,302.6631,56.1123" style="stroke: #A80036; stroke-width: 1.0;"/><text fill="#000000" font-family="sans-serif" font-size="13" lengthAdjust="spacingAndGlyphs" textLength="21" x="300" y="98.4385">sub</text><!--link eventQueue to balloon--><path d="M324.4943,56.0076 C341.7991,76.279 366.606,105.3385 384.8681,126.7311 " fill="none" id="eventQueue-balloon" style="stroke: #A80036; stroke-width: 1.0;"/><polygon fill="#A80036" points="388.1985,130.6326,385.3975,121.1904,384.9522,126.8297,379.3129,126.3845,388.1985,130.6326" style="stroke: #A80036; stroke-width: 1.0;"/><text fill="#000000" font-family="sans-serif" font-size="13" lengthAdjust="spacingAndGlyphs" textLength="21" x="363" y="98.4385">pub</text><!--link balloon to eventQueue--><path d="M408.0005,130.719 C406.3543,116.5397 402.3748,98.9487 393,86 C383.2029,72.4679 368.877,61.6677 354.5702,53.3907 " fill="none" id="balloon-eventQueue" style="stroke: #A80036; stroke-width: 1.0;"/><polygon fill="#A80036" points="350.1358,50.9028,356.0275,58.795,354.4963,53.3494,359.942,51.8182,350.1358,50.9028" style="stroke: #A80036; stroke-width: 1.0;"/><text fill="#000000" font-family="sans-serif" font-size="13" lengthAdjust="spacingAndGlyphs" textLength="21" x="401" y="98.4385">sub</text><!--link eventQueue to scorer--><path d="M350.0629,50.255 C374.3993,60.2322 404.6132,73.1492 431,86 C460.4767,100.3557 492.8625,118.2965 517.2825,132.2855 " fill="none" id="eventQueue-scorer" style="stroke: #A80036; stroke-width: 1.0;"/><polygon fill="#A80036" points="521.747,134.8498,515.9351,126.8986,517.4113,132.3594,511.9505,133.8356,521.747,134.8498" style="stroke: #A80036; stroke-width: 1.0;"/><text fill="#000000" font-family="sans-serif" font-size="13" lengthAdjust="spacingAndGlyphs" textLength="21" x="459" y="98.4385">pub</text><!--link scorer to eventQueue--><path d="M537.913,130.7886 C525.6258,115.9069 508.1671,97.5429 489,86 C447.717,61.1384 394.3259,47.1588 355.5197,39.686 " fill="none" id="scorer-eventQueue" style="stroke: #A80036; stroke-width: 1.0;"/><polygon fill="#A80036" points="350.3834,38.7184,358.4872,44.3155,355.297,39.6441,359.9684,36.4538,350.3834,38.7184" style="stroke: #A80036; stroke-width: 1.0;"/><text fill="#000000" font-family="sans-serif" font-size="13" lengthAdjust="spacingAndGlyphs" textLength="21" x="509" y="98.4385">sub</text><!--
@startuml

class eventQueue {
}

class game {
}

class spawner {
}

class factory {
}

class balloon {
}

class scorer {
}

eventQueue - -> game    : pub
eventQueue - -> spawner : pub
eventQueue - -> factory : pub
eventQueue - -> balloon : pub
eventQueue - -> scorer  : pub

game    - -> eventQueue : sub
spawner - -> eventQueue : sub
factory - -> eventQueue : sub
balloon - -> eventQueue : sub
scorer  - -> eventQueue : sub

@enduml

PlantUML version 1.2018.02(Sat Mar 10 02:20:44 JST 2018)
(GPL source distribution)
Java Runtime: OpenJDK Runtime Environment
JVM: OpenJDK 64-Bit Server VM
Java Version: 1.8.0_162-b12
Operating System: Linux
OS Version: 4.12.14-1-MANJARO
Default Encoding: UTF-8
Language: en
Country: US
--></g></svg>