<?xml version="1.0" encoding="UTF-8" standalone="no"?><svg xmlns="http://www.w3.org/2000/svg" xmlns:xlink="http://www.w3.org/1999/xlink" contentScriptType="application/ecmascript" contentStyleType="text/css" height="175px" preserveAspectRatio="none" style="width:400px;height:175px;" version="1.1" viewBox="0 0 400 175" width="400px" zoomAndPan="magnify"><defs><filter height="300%" id="fvs6gqhi3kco4" width="300%" x="-1" y="-1"><feGaussianBlur result="blurOut" stdDeviation="2.0"/><feColorMatrix in="blurOut" result="blurOut2" type="matrix" values="0 0 0 0 0 0 0 0 0 0 0 0 0 0 0 0 0 0 .4 0"/><feOffset dx="4.0" dy="4.0" in="blurOut2" result="blurOut3"/><feBlend in="SourceGraphic" in2="blurOut3" mode="normal"/></filter></defs><g><!--class game--><rect fill="#FEFECE" filter="url(#fvs6gqhi3kco4)" height="48" id="game" style="stroke: #A80036; stroke-width: 1.5;" width="56" x="6" y="116"/><ellipse cx="21" cy="132" fill="#ADD1B2" rx="11" ry="11" style="stroke: #A80036; stroke-width: 1.0;"/><path d="M24.3906,133.9844 Q23.9688,138.9688 20.6563,138.9688 Q18.7031,138.9688 17.6563,136.9688 Q16.7813,135.2969 16.7813,132.3594 Q16.7813,129.3438 17.75,127.5781 Q18.75,125.7031 20.6563,125.7031 Q23.6875,125.7031 24.3125,130.1406 L22.2344,130.1406 Q21.875,127.6719 20.6563,127.6719 Q18.9219,127.6719 18.9219,132.3594 Q18.9219,137 20.6719,137 Q22.1094,137 22.2656,133.9844 L24.3906,133.9844 Z "/><text fill="#000000" font-family="sans-serif" font-size="12" lengthAdjust="spacingAndGlyphs" textLength="24" x="35" y="136.5586">game</text><line style="stroke: #A80036; stroke-width: 1.5;" x1="7" x2="61" y1="148" y2="148"/><line style="stroke: #A80036; stroke-width: 1.5;" x1="7" x2="61" y1="156" y2="156"/><!--class eventQueue--><rect fill="#FEFECE" filter="url(#fvs6gqhi3kco4)" height="48" id="eventQueue" style="stroke: #A80036; stroke-width: 1.5;" width="92" x="142" y="8"/><ellipse cx="157" cy="24" fill="#ADD1B2" rx="11" ry="11" style="stroke: #A80036; stroke-width: 1.0;"/><path d="M160.3906,25.9844 Q159.9688,30.9688 156.6563,30.9688 Q154.7031,30.9688 153.6563,28.9688 Q152.7813,27.2969 152.7813,24.3594 Q152.7813,21.3438 153.75,19.5781 Q154.75,17.7031 156.6563,17.7031 Q159.6875,17.7031 160.3125,22.1406 L158.2344,22.1406 Q157.875,19.6719 156.6563,19.6719 Q154.9219,19.6719 154.9219,24.3594 Q154.9219,29 156.6719,29 Q158.1094,29 158.2656,25.9844 L160.3906,25.9844 Z "/><text fill="#000000" font-family="sans-serif" font-size="12" lengthAdjust="spacingAndGlyphs" textLength="60" x="171" y="28.5586">eventQueue</text><line style="stroke: #A80036; stroke-width: 1.5;" x1="143" x2="233" y1="40" y2="40"/><line style="stroke: #A80036; stroke-width: 1.5;" x1="143" x2="233" y1="48" y2="48"/><!--class spawner--><rect fill="#FEFECE" filter="url(#fvs6gqhi3kco4)" height="48" id="spawner" style="stroke: #A80036; stroke-width: 1.5;" width="74" x="97" y="116"/><ellipse cx="112" cy="132" fill="#ADD1B2" rx="11" ry="11" style="stroke: #A80036; stroke-width: 1.0;"/><path d="M115.3906,133.9844 Q114.9688,138.9688 111.6563,138.9688 Q109.7031,138.9688 108.6563,136.9688 Q107.7813,135.2969 107.7813,132.3594 Q107.7813,129.3438 108.75,127.5781 Q109.75,125.7031 111.6563,125.7031 Q114.6875,125.7031 115.3125,130.1406 L113.2344,130.1406 Q112.875,127.6719 111.6563,127.6719 Q109.9219,127.6719 109.9219,132.3594 Q109.9219,137 111.6719,137 Q113.1094,137 113.2656,133.9844 L115.3906,133.9844 Z "/><text fill="#000000" font-family="sans-serif" font-size="12" lengthAdjust="spacingAndGlyphs" textLength="42" x="126" y="136.5586">spawner</text><line style="stroke: #A80036; stroke-width: 1.5;" x1="98" x2="170" y1="148" y2="148"/><line style="stroke: #A80036; stroke-width: 1.5;" x1="98" x2="170" y1="156" y2="156"/><!--class factory--><rect fill="#FEFECE" filter="url(#fvs6gqhi3kco4)" height="48" id="factory" style="stroke: #A80036; stroke-width: 1.5;" width="74" x="206" y="116"/><ellipse cx="221" cy="132" fill="#ADD1B2" rx="11" ry="11" style="stroke: #A80036; stroke-width: 1.0;"/><path d="M224.3906,133.9844 Q223.9688,138.9688 220.6563,138.9688 Q218.7031,138.9688 217.6563,136.9688 Q216.7813,135.2969 216.7813,132.3594 Q216.7813,129.3438 217.75,127.5781 Q218.75,125.7031 220.6563,125.7031 Q223.6875,125.7031 224.3125,130.1406 L222.2344,130.1406 Q221.875,127.6719 220.6563,127.6719 Q218.9219,127.6719 218.9219,132.3594 Q218.9219,137 220.6719,137 Q222.1094,137 222.2656,133.9844 L224.3906,133.9844 Z "/><text fill="#000000" font-family="sans-serif" font-size="12" lengthAdjust="spacingAndGlyphs" textLength="42" x="235" y="136.5586">factory</text><line style="stroke: #A80036; stroke-width: 1.5;" x1="207" x2="279" y1="148" y2="148"/><line style="stroke: #A80036; stroke-width: 1.5;" x1="207" x2="279" y1="156" y2="156"/><!--class balloon--><rect fill="#FEFECE" filter="url(#fvs6gqhi3kco4)" height="48" id="balloon" style="stroke: #A80036; stroke-width: 1.5;" width="74" x="315" y="116"/><ellipse cx="330" cy="132" fill="#ADD1B2" rx="11" ry="11" style="stroke: #A80036; stroke-width: 1.0;"/><path d="M333.3906,133.9844 Q332.9688,138.9688 329.6563,138.9688 Q327.7031,138.9688 326.6563,136.9688 Q325.7813,135.2969 325.7813,132.3594 Q325.7813,129.3438 326.75,127.5781 Q327.75,125.7031 329.6563,125.7031 Q332.6875,125.7031 333.3125,130.1406 L331.2344,130.1406 Q330.875,127.6719 329.6563,127.6719 Q327.9219,127.6719 327.9219,132.3594 Q327.9219,137 329.6719,137 Q331.1094,137 331.2656,133.9844 L333.3906,133.9844 Z "/><text fill="#000000" font-family="sans-serif" font-size="12" lengthAdjust="spacingAndGlyphs" textLength="42" x="344" y="136.5586">balloon</text><line style="stroke: #A80036; stroke-width: 1.5;" x1="316" x2="388" y1="148" y2="148"/><line style="stroke: #A80036; stroke-width: 1.5;" x1="316" x2="388" y1="156" y2="156"/><!--link eventQueue to game--><path d="M153.4394,56.2373 C127.4519,74.4623 92.0852,99.2649 66.5891,117.1453 " fill="none" id="eventQueue-game" style="stroke: #A80036; stroke-width: 1.0;"/><polygon fill="#A80036" points="62.267,120.1764,71.9323,118.2836,66.3606,117.3055,67.3388,111.7338,62.267,120.1764" style="stroke: #A80036; stroke-width: 1.0;"/><!--link eventQueue to spawner--><path d="M175.8813,56.2373 C167.7523,72.4955 157.0059,93.9882 148.4342,111.1316 " fill="none" id="eventQueue-spawner" style="stroke: #A80036; stroke-width: 1.0;"/><polygon fill="#A80036" points="146.0782,115.8436,153.6809,109.5827,148.3143,111.3715,146.5255,106.0049,146.0782,115.8436" style="stroke: #A80036; stroke-width: 1.0;"/><!--link eventQueue to factory--><path d="M200.3431,56.2373 C208.6227,72.4955 219.5681,93.9882 228.2985,111.1316 " fill="none" id="eventQueue-factory" style="stroke: #A80036; stroke-width: 1.0;"/><polygon fill="#A80036" points="230.6981,115.8436,230.1784,106.0085,228.4291,111.3881,223.0495,109.6388,230.6981,115.8436" style="stroke: #A80036; stroke-width: 1.0;"/><!--link eventQueue to balloon--><path d="M224.8048,56.2373 C250.4427,73.1208 284.6526,95.6493 311.1364,113.0898 " fill="none" id="eventQueue-balloon" style="stroke: #A80036; stroke-width: 1.0;"/><polygon fill="#A80036" points="315.318,115.8436,310.0015,107.553,311.1422,113.0936,305.6015,114.2343,315.318,115.8436" style="stroke: #A80036; stroke-width: 1.0;"/><!--
@startuml

class game {
}

class eventQueue {
}

class spawner {
}

class factory {
}

class balloon {
}


eventQueue - -> game
eventQueue - -> spawner
eventQueue - -> factory
eventQueue - -> balloon




@enduml

PlantUML version 1.2018.02(Sat Mar 10 02:20:44 JST 2018)
(GPL source distribution)
Java Runtime: OpenJDK Runtime Environment
JVM: OpenJDK 64-Bit Server VM
Java Version: 1.8.0_162-b12
Operating System: Linux
OS Version: 4.12.14-1-MANJARO
Default Encoding: UTF-8
Language: en
Country: US
--></g></svg>