<?xml version="1.0" encoding="UTF-8" standalone="no"?><svg xmlns="http://www.w3.org/2000/svg" xmlns:xlink="http://www.w3.org/1999/xlink" contentScriptType="application/ecmascript" contentStyleType="text/css" height="283px" preserveAspectRatio="none" style="width:309px;height:283px;" version="1.1" viewBox="0 0 309 283" width="309px" zoomAndPan="magnify"><defs><filter height="300%" id="fs19nphmpc2hx" width="300%" x="-1" y="-1"><feGaussianBlur result="blurOut" stdDeviation="2.0"/><feColorMatrix in="blurOut" result="blurOut2" type="matrix" values="0 0 0 0 0 0 0 0 0 0 0 0 0 0 0 0 0 0 .4 0"/><feOffset dx="4.0" dy="4.0" in="blurOut2" result="blurOut3"/><feBlend in="SourceGraphic" in2="blurOut3" mode="normal"/></filter></defs><g><!--class game--><rect fill="#FEFECE" filter="url(#fs19nphmpc2hx)" height="48" id="game" style="stroke: #A80036; stroke-width: 1.5;" width="56" x="124" y="8"/><ellipse cx="139" cy="24" fill="#ADD1B2" rx="11" ry="11" style="stroke: #A80036; stroke-width: 1.0;"/><path d="M142.3906,25.9844 Q141.9688,30.9688 138.6563,30.9688 Q136.7031,30.9688 135.6563,28.9688 Q134.7813,27.2969 134.7813,24.3594 Q134.7813,21.3438 135.75,19.5781 Q136.75,17.7031 138.6563,17.7031 Q141.6875,17.7031 142.3125,22.1406 L140.2344,22.1406 Q139.875,19.6719 138.6563,19.6719 Q136.9219,19.6719 136.9219,24.3594 Q136.9219,29 138.6719,29 Q140.1094,29 140.2656,25.9844 L142.3906,25.9844 Z "/><text fill="#000000" font-family="sans-serif" font-size="12" lengthAdjust="spacingAndGlyphs" textLength="24" x="153" y="28.5586">game</text><line style="stroke: #A80036; stroke-width: 1.5;" x1="125" x2="179" y1="40" y2="40"/><line style="stroke: #A80036; stroke-width: 1.5;" x1="125" x2="179" y1="48" y2="48"/><!--class eventQueue--><rect fill="#FEFECE" filter="url(#fs19nphmpc2hx)" height="48" id="eventQueue" style="stroke: #A80036; stroke-width: 1.5;" width="92" x="106" y="116"/><ellipse cx="121" cy="132" fill="#ADD1B2" rx="11" ry="11" style="stroke: #A80036; stroke-width: 1.0;"/><path d="M124.3906,133.9844 Q123.9688,138.9688 120.6563,138.9688 Q118.7031,138.9688 117.6563,136.9688 Q116.7813,135.2969 116.7813,132.3594 Q116.7813,129.3438 117.75,127.5781 Q118.75,125.7031 120.6563,125.7031 Q123.6875,125.7031 124.3125,130.1406 L122.2344,130.1406 Q121.875,127.6719 120.6563,127.6719 Q118.9219,127.6719 118.9219,132.3594 Q118.9219,137 120.6719,137 Q122.1094,137 122.2656,133.9844 L124.3906,133.9844 Z "/><text fill="#000000" font-family="sans-serif" font-size="12" lengthAdjust="spacingAndGlyphs" textLength="60" x="135" y="136.5586">eventQueue</text><line style="stroke: #A80036; stroke-width: 1.5;" x1="107" x2="197" y1="148" y2="148"/><line style="stroke: #A80036; stroke-width: 1.5;" x1="107" x2="197" y1="156" y2="156"/><!--class spawner--><rect fill="#FEFECE" filter="url(#fs19nphmpc2hx)" height="48" id="spawner" style="stroke: #A80036; stroke-width: 1.5;" width="74" x="6" y="224"/><ellipse cx="21" cy="240" fill="#ADD1B2" rx="11" ry="11" style="stroke: #A80036; stroke-width: 1.0;"/><path d="M24.3906,241.9844 Q23.9688,246.9688 20.6563,246.9688 Q18.7031,246.9688 17.6563,244.9688 Q16.7813,243.2969 16.7813,240.3594 Q16.7813,237.3438 17.75,235.5781 Q18.75,233.7031 20.6563,233.7031 Q23.6875,233.7031 24.3125,238.1406 L22.2344,238.1406 Q21.875,235.6719 20.6563,235.6719 Q18.9219,235.6719 18.9219,240.3594 Q18.9219,245 20.6719,245 Q22.1094,245 22.2656,241.9844 L24.3906,241.9844 Z "/><text fill="#000000" font-family="sans-serif" font-size="12" lengthAdjust="spacingAndGlyphs" textLength="42" x="35" y="244.5586">spawner</text><line style="stroke: #A80036; stroke-width: 1.5;" x1="7" x2="79" y1="256" y2="256"/><line style="stroke: #A80036; stroke-width: 1.5;" x1="7" x2="79" y1="264" y2="264"/><!--class factory--><rect fill="#FEFECE" filter="url(#fs19nphmpc2hx)" height="48" id="factory" style="stroke: #A80036; stroke-width: 1.5;" width="74" x="115" y="224"/><ellipse cx="130" cy="240" fill="#ADD1B2" rx="11" ry="11" style="stroke: #A80036; stroke-width: 1.0;"/><path d="M133.3906,241.9844 Q132.9688,246.9688 129.6563,246.9688 Q127.7031,246.9688 126.6563,244.9688 Q125.7813,243.2969 125.7813,240.3594 Q125.7813,237.3438 126.75,235.5781 Q127.75,233.7031 129.6563,233.7031 Q132.6875,233.7031 133.3125,238.1406 L131.2344,238.1406 Q130.875,235.6719 129.6563,235.6719 Q127.9219,235.6719 127.9219,240.3594 Q127.9219,245 129.6719,245 Q131.1094,245 131.2656,241.9844 L133.3906,241.9844 Z "/><text fill="#000000" font-family="sans-serif" font-size="12" lengthAdjust="spacingAndGlyphs" textLength="42" x="144" y="244.5586">factory</text><line style="stroke: #A80036; stroke-width: 1.5;" x1="116" x2="188" y1="256" y2="256"/><line style="stroke: #A80036; stroke-width: 1.5;" x1="116" x2="188" y1="264" y2="264"/><!--class balloon--><rect fill="#FEFECE" filter="url(#fs19nphmpc2hx)" height="48" id="balloon" style="stroke: #A80036; stroke-width: 1.5;" width="74" x="224" y="224"/><ellipse cx="239" cy="240" fill="#ADD1B2" rx="11" ry="11" style="stroke: #A80036; stroke-width: 1.0;"/><path d="M242.3906,241.9844 Q241.9688,246.9688 238.6563,246.9688 Q236.7031,246.9688 235.6563,244.9688 Q234.7813,243.2969 234.7813,240.3594 Q234.7813,237.3438 235.75,235.5781 Q236.75,233.7031 238.6563,233.7031 Q241.6875,233.7031 242.3125,238.1406 L240.2344,238.1406 Q239.875,235.6719 238.6563,235.6719 Q236.9219,235.6719 236.9219,240.3594 Q236.9219,245 238.6719,245 Q240.1094,245 240.2656,241.9844 L242.3906,241.9844 Z "/><text fill="#000000" font-family="sans-serif" font-size="12" lengthAdjust="spacingAndGlyphs" textLength="42" x="253" y="244.5586">balloon</text><line style="stroke: #A80036; stroke-width: 1.5;" x1="225" x2="297" y1="256" y2="256"/><line style="stroke: #A80036; stroke-width: 1.5;" x1="225" x2="297" y1="264" y2="264"/><!--link eventQueue to game--><path d="M163.4688,115.8436 C165.9195,99.7416 166.1526,78.4785 164.1681,61.3947 " fill="none" id="eventQueue-game" style="stroke: #A80036; stroke-width: 1.0;"/><polygon fill="#A80036" points="163.4811,56.2373,160.7046,65.6867,164.1414,61.1935,168.6346,64.6303,163.4811,56.2373" style="stroke: #A80036; stroke-width: 1.0;"/><!--link game to eventQueue--><path d="M141.1568,56.2373 C138.8493,72.3565 138.6361,93.6212 140.5173,110.6911 " fill="none" id="game-eventQueue" style="stroke: #A80036; stroke-width: 1.0;"/><polygon fill="#A80036" points="141.1684,115.8436,144.0085,106.4131,140.5415,110.8831,136.0716,107.4161,141.1684,115.8436" style="stroke: #A80036; stroke-width: 1.0;"/><!--link eventQueue to spawner--><path d="M116.6951,164.2373 C97.6386,180.7734 75.3211,202.7246 59.9198,220.0069 " fill="none" id="eventQueue-spawner" style="stroke: #A80036; stroke-width: 1.0;"/><polygon fill="#A80036" points="56.5485,223.8436,65.494,219.7232,59.8489,220.0876,59.4845,214.4425,56.5485,223.8436" style="stroke: #A80036; stroke-width: 1.0;"/><!--link spawner to eventQueue--><path d="M78.8489,223.8436 C98.0343,207.3252 120.3677,185.3753 135.672,168.0778 " fill="none" id="spawner-eventQueue" style="stroke: #A80036; stroke-width: 1.0;"/><polygon fill="#A80036" points="139.0193,164.2373,130.0905,168.3937,135.7341,168.0065,136.1213,173.6501,139.0193,164.2373" style="stroke: #A80036; stroke-width: 1.0;"/><!--link eventQueue to factory--><path d="M141.1568,164.2373 C138.8493,180.3565 138.6361,201.6212 140.5173,218.6911 " fill="none" id="eventQueue-factory" style="stroke: #A80036; stroke-width: 1.0;"/><polygon fill="#A80036" points="141.1684,223.8436,144.0085,214.4131,140.5415,218.8831,136.0716,215.4161,141.1684,223.8436" style="stroke: #A80036; stroke-width: 1.0;"/><!--link factory to eventQueue--><path d="M163.4688,223.8436 C165.9195,207.7416 166.1526,186.4785 164.1681,169.3947 " fill="none" id="factory-eventQueue" style="stroke: #A80036; stroke-width: 1.0;"/><polygon fill="#A80036" points="163.4811,164.2373,160.7046,173.6867,164.1414,169.1935,168.6346,172.6303,163.4811,164.2373" style="stroke: #A80036; stroke-width: 1.0;"/><!--link eventQueue to balloon--><path d="M165.6185,164.2373 C180.0609,180.9124 202.302,203.0939 221.9058,220.4416 " fill="none" id="eventQueue-balloon" style="stroke: #A80036; stroke-width: 1.0;"/><polygon fill="#A80036" points="225.7883,223.8436,221.6554,214.9039,222.0277,220.5484,216.3831,220.9208,225.7883,223.8436" style="stroke: #A80036; stroke-width: 1.0;"/><!--link balloon to eventQueue--><path d="M248.0887,223.8436 C233.8124,207.1864 211.5887,185.006 191.8535,167.6427 " fill="none" id="balloon-eventQueue" style="stroke: #A80036; stroke-width: 1.0;"/><polygon fill="#A80036" points="187.9428,164.2373,192.1036,173.1641,191.7136,167.5207,197.357,167.1308,187.9428,164.2373" style="stroke: #A80036; stroke-width: 1.0;"/><!--
@startuml

class game {
}

class eventQueue {
}

class spawner {
}

class factory {
}

class balloon {
}


eventQueue - -> game
eventQueue - -> spawner
eventQueue - -> factory
eventQueue - -> balloon

game    - -> eventQueue
spawner - -> eventQueue
factory - -> eventQueue
balloon - -> eventQueue



@enduml

PlantUML version 1.2018.02(Sat Mar 10 02:20:44 JST 2018)
(GPL source distribution)
Java Runtime: OpenJDK Runtime Environment
JVM: OpenJDK 64-Bit Server VM
Java Version: 1.8.0_162-b12
Operating System: Linux
OS Version: 4.12.14-1-MANJARO
Default Encoding: UTF-8
Language: en
Country: US
--></g></svg>