<?xml version="1.0" encoding="UTF-8" standalone="no"?><svg xmlns="http://www.w3.org/2000/svg" xmlns:xlink="http://www.w3.org/1999/xlink" contentScriptType="application/ecmascript" contentStyleType="text/css" height="117px" preserveAspectRatio="none" style="width:527px;height:117px;" version="1.1" viewBox="0 0 527 117" width="527px" zoomAndPan="magnify"><defs><filter height="300%" id="f7kzsexorjlov" width="300%" x="-1" y="-1"><feGaussianBlur result="blurOut" stdDeviation="2.0"/><feColorMatrix in="blurOut" result="blurOut2" type="matrix" values="0 0 0 0 0 0 0 0 0 0 0 0 0 0 0 0 0 0 .4 0"/><feOffset dx="4.0" dy="4.0" in="blurOut2" result="blurOut3"/><feBlend in="SourceGraphic" in2="blurOut3" mode="normal"/></filter></defs><g><!--class game--><rect fill="#FEFECE" filter="url(#f7kzsexorjlov)" height="48" id="game" style="stroke: #A80036; stroke-width: 1.5;" width="56" x="6" y="58"/><ellipse cx="21" cy="74" fill="#ADD1B2" rx="11" ry="11" style="stroke: #A80036; stroke-width: 1.0;"/><path d="M24.3906,75.9844 Q23.9688,80.9688 20.6563,80.9688 Q18.7031,80.9688 17.6563,78.9688 Q16.7813,77.2969 16.7813,74.3594 Q16.7813,71.3438 17.75,69.5781 Q18.75,67.7031 20.6563,67.7031 Q23.6875,67.7031 24.3125,72.1406 L22.2344,72.1406 Q21.875,69.6719 20.6563,69.6719 Q18.9219,69.6719 18.9219,74.3594 Q18.9219,79 20.6719,79 Q22.1094,79 22.2656,75.9844 L24.3906,75.9844 Z "/><text fill="#000000" font-family="sans-serif" font-size="12" lengthAdjust="spacingAndGlyphs" textLength="24" x="35" y="78.5586">game</text><line style="stroke: #A80036; stroke-width: 1.5;" x1="7" x2="61" y1="90" y2="90"/><line style="stroke: #A80036; stroke-width: 1.5;" x1="7" x2="61" y1="98" y2="98"/><!--class eventQueue--><rect fill="#FEFECE" filter="url(#f7kzsexorjlov)" height="48" id="eventQueue" style="stroke: #A80036; stroke-width: 1.5;" width="92" x="315" y="58"/><ellipse cx="330" cy="74" fill="#ADD1B2" rx="11" ry="11" style="stroke: #A80036; stroke-width: 1.0;"/><path d="M333.3906,75.9844 Q332.9688,80.9688 329.6563,80.9688 Q327.7031,80.9688 326.6563,78.9688 Q325.7813,77.2969 325.7813,74.3594 Q325.7813,71.3438 326.75,69.5781 Q327.75,67.7031 329.6563,67.7031 Q332.6875,67.7031 333.3125,72.1406 L331.2344,72.1406 Q330.875,69.6719 329.6563,69.6719 Q327.9219,69.6719 327.9219,74.3594 Q327.9219,79 329.6719,79 Q331.1094,79 331.2656,75.9844 L333.3906,75.9844 Z "/><text fill="#000000" font-family="sans-serif" font-size="12" lengthAdjust="spacingAndGlyphs" textLength="60" x="344" y="78.5586">eventQueue</text><line style="stroke: #A80036; stroke-width: 1.5;" x1="316" x2="406" y1="90" y2="90"/><line style="stroke: #A80036; stroke-width: 1.5;" x1="316" x2="406" y1="98" y2="98"/><!--class spawner--><rect fill="#FEFECE" filter="url(#f7kzsexorjlov)" height="48" id="spawner" style="stroke: #A80036; stroke-width: 1.5;" width="74" x="97" y="58"/><ellipse cx="112" cy="74" fill="#ADD1B2" rx="11" ry="11" style="stroke: #A80036; stroke-width: 1.0;"/><path d="M115.3906,75.9844 Q114.9688,80.9688 111.6563,80.9688 Q109.7031,80.9688 108.6563,78.9688 Q107.7813,77.2969 107.7813,74.3594 Q107.7813,71.3438 108.75,69.5781 Q109.75,67.7031 111.6563,67.7031 Q114.6875,67.7031 115.3125,72.1406 L113.2344,72.1406 Q112.875,69.6719 111.6563,69.6719 Q109.9219,69.6719 109.9219,74.3594 Q109.9219,79 111.6719,79 Q113.1094,79 113.2656,75.9844 L115.3906,75.9844 Z "/><text fill="#000000" font-family="sans-serif" font-size="12" lengthAdjust="spacingAndGlyphs" textLength="42" x="126" y="78.5586">spawner</text><line style="stroke: #A80036; stroke-width: 1.5;" x1="98" x2="170" y1="90" y2="90"/><line style="stroke: #A80036; stroke-width: 1.5;" x1="98" x2="170" y1="98" y2="98"/><!--class factory--><rect fill="#FEFECE" filter="url(#f7kzsexorjlov)" height="48" id="factory" style="stroke: #A80036; stroke-width: 1.5;" width="74" x="206" y="58"/><ellipse cx="221" cy="74" fill="#ADD1B2" rx="11" ry="11" style="stroke: #A80036; stroke-width: 1.0;"/><path d="M224.3906,75.9844 Q223.9688,80.9688 220.6563,80.9688 Q218.7031,80.9688 217.6563,78.9688 Q216.7813,77.2969 216.7813,74.3594 Q216.7813,71.3438 217.75,69.5781 Q218.75,67.7031 220.6563,67.7031 Q223.6875,67.7031 224.3125,72.1406 L222.2344,72.1406 Q221.875,69.6719 220.6563,69.6719 Q218.9219,69.6719 218.9219,74.3594 Q218.9219,79 220.6719,79 Q222.1094,79 222.2656,75.9844 L224.3906,75.9844 Z "/><text fill="#000000" font-family="sans-serif" font-size="12" lengthAdjust="spacingAndGlyphs" textLength="42" x="235" y="78.5586">factory</text><line style="stroke: #A80036; stroke-width: 1.5;" x1="207" x2="279" y1="90" y2="90"/><line style="stroke: #A80036; stroke-width: 1.5;" x1="207" x2="279" y1="98" y2="98"/><!--class balloon--><rect fill="#FEFECE" filter="url(#f7kzsexorjlov)" height="48" id="balloon" style="stroke: #A80036; stroke-width: 1.5;" width="74" x="442" y="58"/><ellipse cx="457" cy="74" fill="#ADD1B2" rx="11" ry="11" style="stroke: #A80036; stroke-width: 1.0;"/><path d="M460.3906,75.9844 Q459.9688,80.9688 456.6563,80.9688 Q454.7031,80.9688 453.6563,78.9688 Q452.7813,77.2969 452.7813,74.3594 Q452.7813,71.3438 453.75,69.5781 Q454.75,67.7031 456.6563,67.7031 Q459.6875,67.7031 460.3125,72.1406 L458.2344,72.1406 Q457.875,69.6719 456.6563,69.6719 Q454.9219,69.6719 454.9219,74.3594 Q454.9219,79 456.6719,79 Q458.1094,79 458.2656,75.9844 L460.3906,75.9844 Z "/><text fill="#000000" font-family="sans-serif" font-size="12" lengthAdjust="spacingAndGlyphs" textLength="42" x="471" y="78.5586">balloon</text><line style="stroke: #A80036; stroke-width: 1.5;" x1="443" x2="515" y1="90" y2="90"/><line style="stroke: #A80036; stroke-width: 1.5;" x1="443" x2="515" y1="98" y2="98"/><!--link game to eventQueue--><path d="M54.6408,57.829 C65.9803,46.4375 81.0653,34.0432 97.5,28 C173.8362,-0.0694 202.6903,4.3195 280.5,28 C298.1544,33.3729 315.4546,44.0508 329.4647,54.5031 " fill="none" id="game-eventQueue" style="stroke: #A80036; stroke-width: 1.0;"/><polygon fill="#A80036" points="333.7038,57.7335,328.9701,49.0968,329.727,54.7028,324.121,55.4597,333.7038,57.7335" style="stroke: #A80036; stroke-width: 1.0;"/><!--link spawner to eventQueue--><path d="M158.1822,57.7725 C171.2916,46.366 188.4742,33.9754 206.5,28 C237.7184,17.6514 249.036,18.4243 280.5,28 C298.1544,33.3729 315.4546,44.0508 329.4647,54.5031 " fill="none" id="spawner-eventQueue" style="stroke: #A80036; stroke-width: 1.0;"/><polygon fill="#A80036" points="333.7038,57.7335,328.9701,49.0968,329.727,54.7028,324.121,55.4597,333.7038,57.7335" style="stroke: #A80036; stroke-width: 1.0;"/><!--link factory to eventQueue--><path d="M280.3359,82 C290.1744,82 300.0129,82 309.8514,82 " fill="none" id="factory-eventQueue" style="stroke: #A80036; stroke-width: 1.0;"/><polygon fill="#A80036" points="314.9963,82,305.9963,78,309.9963,82,305.9963,86,314.9963,82" style="stroke: #A80036; stroke-width: 1.0;"/><!--
@startuml

class game {
}

class eventQueue {
}

class spawner {
}

class factory {
}

class balloon {
}


game -> eventQueue
spawner -> eventQueue
factory -> eventQueue

@enduml

PlantUML version 1.2018.02(Sat Mar 10 02:20:44 JST 2018)
(GPL source distribution)
Java Runtime: OpenJDK Runtime Environment
JVM: OpenJDK 64-Bit Server VM
Java Version: 1.8.0_162-b12
Operating System: Linux
OS Version: 4.12.14-1-MANJARO
Default Encoding: UTF-8
Language: en
Country: US
--></g></svg>