<?xml version="1.0" encoding="UTF-8" standalone="no"?><svg xmlns="http://www.w3.org/2000/svg" xmlns:xlink="http://www.w3.org/1999/xlink" contentScriptType="application/ecmascript" contentStyleType="text/css" height="175px" preserveAspectRatio="none" style="width:400px;height:175px;" version="1.1" viewBox="0 0 400 175" width="400px" zoomAndPan="magnify"><defs><filter height="300%" id="f1q9fjkkvofc5h" width="300%" x="-1" y="-1"><feGaussianBlur result="blurOut" stdDeviation="2.0"/><feColorMatrix in="blurOut" result="blurOut2" type="matrix" values="0 0 0 0 0 0 0 0 0 0 0 0 0 0 0 0 0 0 .4 0"/><feOffset dx="4.0" dy="4.0" in="blurOut2" result="blurOut3"/><feBlend in="SourceGraphic" in2="blurOut3" mode="normal"/></filter></defs><g><!--class eventQueue--><rect fill="#FEFECE" filter="url(#f1q9fjkkvofc5h)" height="48" id="eventQueue" style="stroke: #A80036; stroke-width: 1.5;" width="92" x="142" y="8"/><ellipse cx="157" cy="24" fill="#ADD1B2" rx="11" ry="11" style="stroke: #A80036; stroke-width: 1.0;"/><path d="M160.3906,25.9844 Q159.9688,30.9688 156.6563,30.9688 Q154.7031,30.9688 153.6563,28.9688 Q152.7813,27.2969 152.7813,24.3594 Q152.7813,21.3438 153.75,19.5781 Q154.75,17.7031 156.6563,17.7031 Q159.6875,17.7031 160.3125,22.1406 L158.2344,22.1406 Q157.875,19.6719 156.6563,19.6719 Q154.9219,19.6719 154.9219,24.3594 Q154.9219,29 156.6719,29 Q158.1094,29 158.2656,25.9844 L160.3906,25.9844 Z "/><text fill="#000000" font-family="sans-serif" font-size="12" lengthAdjust="spacingAndGlyphs" textLength="60" x="171" y="28.5586">eventQueue</text><line style="stroke: #A80036; stroke-width: 1.5;" x1="143" x2="233" y1="40" y2="40"/><line style="stroke: #A80036; stroke-width: 1.5;" x1="143" x2="233" y1="48" y2="48"/><!--class game--><rect fill="#FEFECE" filter="url(#f1q9fjkkvofc5h)" height="48" id="game" style="stroke: #A80036; stroke-width: 1.5;" width="56" x="6" y="116"/><ellipse cx="21" cy="132" fill="#ADD1B2" rx="11" ry="11" style="stroke: #A80036; stroke-width: 1.0;"/><path d="M24.3906,133.9844 Q23.9688,138.9688 20.6563,138.9688 Q18.7031,138.9688 17.6563,136.9688 Q16.7813,135.2969 16.7813,132.3594 Q16.7813,129.3438 17.75,127.5781 Q18.75,125.7031 20.6563,125.7031 Q23.6875,125.7031 24.3125,130.1406 L22.2344,130.1406 Q21.875,127.6719 20.6563,127.6719 Q18.9219,127.6719 18.9219,132.3594 Q18.9219,137 20.6719,137 Q22.1094,137 22.2656,133.9844 L24.3906,133.9844 Z "/><text fill="#000000" font-family="sans-serif" font-size="12" lengthAdjust="spacingAndGlyphs" textLength="24" x="35" y="136.5586">game</text><line style="stroke: #A80036; stroke-width: 1.5;" x1="7" x2="61" y1="148" y2="148"/><line style="stroke: #A80036; stroke-width: 1.5;" x1="7" x2="61" y1="156" y2="156"/><!--class spawner--><rect fill="#FEFECE" filter="url(#f1q9fjkkvofc5h)" height="48" id="spawner" style="stroke: #A80036; stroke-width: 1.5;" width="74" x="97" y="116"/><ellipse cx="112" cy="132" fill="#ADD1B2" rx="11" ry="11" style="stroke: #A80036; stroke-width: 1.0;"/><path d="M115.3906,133.9844 Q114.9688,138.9688 111.6563,138.9688 Q109.7031,138.9688 108.6563,136.9688 Q107.7813,135.2969 107.7813,132.3594 Q107.7813,129.3438 108.75,127.5781 Q109.75,125.7031 111.6563,125.7031 Q114.6875,125.7031 115.3125,130.1406 L113.2344,130.1406 Q112.875,127.6719 111.6563,127.6719 Q109.9219,127.6719 109.9219,132.3594 Q109.9219,137 111.6719,137 Q113.1094,137 113.2656,133.9844 L115.3906,133.9844 Z "/><text fill="#000000" font-family="sans-serif" font-size="12" lengthAdjust="spacingAndGlyphs" textLength="42" x="126" y="136.5586">spawner</text><line style="stroke: #A80036; stroke-width: 1.5;" x1="98" x2="170" y1="148" y2="148"/><line style="stroke: #A80036; stroke-width: 1.5;" x1="98" x2="170" y1="156" y2="156"/><!--class factory--><rect fill="#FEFECE" filter="url(#f1q9fjkkvofc5h)" height="48" id="factory" style="stroke: #A80036; stroke-width: 1.5;" width="74" x="206" y="116"/><ellipse cx="221" cy="132" fill="#ADD1B2" rx="11" ry="11" style="stroke: #A80036; stroke-width: 1.0;"/><path d="M224.3906,133.9844 Q223.9688,138.9688 220.6563,138.9688 Q218.7031,138.9688 217.6563,136.9688 Q216.7813,135.2969 216.7813,132.3594 Q216.7813,129.3438 217.75,127.5781 Q218.75,125.7031 220.6563,125.7031 Q223.6875,125.7031 224.3125,130.1406 L222.2344,130.1406 Q221.875,127.6719 220.6563,127.6719 Q218.9219,127.6719 218.9219,132.3594 Q218.9219,137 220.6719,137 Q222.1094,137 222.2656,133.9844 L224.3906,133.9844 Z "/><text fill="#000000" font-family="sans-serif" font-size="12" lengthAdjust="spacingAndGlyphs" textLength="42" x="235" y="136.5586">factory</text><line style="stroke: #A80036; stroke-width: 1.5;" x1="207" x2="279" y1="148" y2="148"/><line style="stroke: #A80036; stroke-width: 1.5;" x1="207" x2="279" y1="156" y2="156"/><!--class balloon--><rect fill="#FEFECE" filter="url(#f1q9fjkkvofc5h)" height="48" id="balloon" style="stroke: #A80036; stroke-width: 1.5;" width="74" x="315" y="116"/><ellipse cx="330" cy="132" fill="#ADD1B2" rx="11" ry="11" style="stroke: #A80036; stroke-width: 1.0;"/><path d="M333.3906,133.9844 Q332.9688,138.9688 329.6563,138.9688 Q327.7031,138.9688 326.6563,136.9688 Q325.7813,135.2969 325.7813,132.3594 Q325.7813,129.3438 326.75,127.5781 Q327.75,125.7031 329.6563,125.7031 Q332.6875,125.7031 333.3125,130.1406 L331.2344,130.1406 Q330.875,127.6719 329.6563,127.6719 Q327.9219,127.6719 327.9219,132.3594 Q327.9219,137 329.6719,137 Q331.1094,137 331.2656,133.9844 L333.3906,133.9844 Z "/><text fill="#000000" font-family="sans-serif" font-size="12" lengthAdjust="spacingAndGlyphs" textLength="42" x="344" y="136.5586">balloon</text><line style="stroke: #A80036; stroke-width: 1.5;" x1="316" x2="388" y1="148" y2="148"/><line style="stroke: #A80036; stroke-width: 1.5;" x1="316" x2="388" y1="156" y2="156"/><!--link eventQueue to game--><path d="M142.5962,56.2373 C116.3226,72.9819 84.3918,95.2788 61.7332,112.6582 " fill="none" id="eventQueue-game" style="stroke: #A80036; stroke-width: 1.0;"/><polygon fill="#A80036" points="57.6136,115.8436,67.1802,113.5025,61.569,112.785,62.2865,107.1739,57.6136,115.8436" style="stroke: #A80036; stroke-width: 1.0;"/><!--link game to eventQueue--><path d="M62.2313,126.6869 C90.6236,109.9759 132.9815,80.8947 160.9082,59.3578 " fill="none" id="game-eventQueue" style="stroke: #A80036; stroke-width: 1.0;"/><polygon fill="#A80036" points="164.9205,56.2373,155.3605,58.6053,160.9737,59.307,160.272,64.9201,164.9205,56.2373" style="stroke: #A80036; stroke-width: 1.0;"/><!--link eventQueue to spawner--><path d="M165.0381,56.2373 C154.5816,72.4955 143.6385,93.9882 137.0006,111.1316 " fill="none" id="eventQueue-spawner" style="stroke: #A80036; stroke-width: 1.0;"/><polygon fill="#A80036" points="135.2466,115.8436,142.1352,108.8046,136.991,111.1578,134.6379,106.0136,135.2466,115.8436" style="stroke: #A80036; stroke-width: 1.0;"/><!--link spawner to eventQueue--><path d="M157.547,115.8436 C168.1392,99.6028 179.1007,78.1115 185.6394,60.9538 " fill="none" id="spawner-eventQueue" style="stroke: #A80036; stroke-width: 1.0;"/><polygon fill="#A80036" points="187.3624,56.2373,180.5168,63.3181,185.6466,60.9337,188.031,66.0634,187.3624,56.2373" style="stroke: #A80036; stroke-width: 1.0;"/><!--link eventQueue to factory--><path d="M189.4999,56.2373 C195.5029,72.6345 206.3848,94.356 217.1384,111.5702 " fill="none" id="eventQueue-factory" style="stroke: #A80036; stroke-width: 1.0;"/><polygon fill="#A80036" points="219.8665,115.8436,218.395,106.1053,217.176,111.6292,211.652,110.4101,219.8665,115.8436" style="stroke: #A80036; stroke-width: 1.0;"/><!--link factory to eventQueue--><path d="M242.1669,115.8436 C236.3184,99.464 225.4554,77.7438 214.5849,60.5148 " fill="none" id="factory-eventQueue" style="stroke: #A80036; stroke-width: 1.0;"/><polygon fill="#A80036" points="211.8241,56.2373,213.3439,65.9682,214.5355,60.4383,220.0654,61.6299,211.8241,56.2373" style="stroke: #A80036; stroke-width: 1.0;"/><!--link eventQueue to balloon--><path d="M213.9616,56.2373 C240.1315,75.265 280.1073,101.4624 310.5594,119.4663 " fill="none" id="eventQueue-balloon" style="stroke: #A80036; stroke-width: 1.0;"/><polygon fill="#A80036" points="314.9804,122.0614,309.2436,114.0558,310.6684,119.5303,305.1939,120.9551,314.9804,122.0614" style="stroke: #A80036; stroke-width: 1.0;"/><!--link balloon to eventQueue--><path d="M326.7509,115.8173 C303.1259,98.5289 267.9268,75.3009 238.6905,57.6818 " fill="none" id="balloon-eventQueue" style="stroke: #A80036; stroke-width: 1.0;"/><polygon fill="#A80036" points="234.0522,54.904,239.7183,62.9597,238.3418,57.4729,243.8286,56.0964,234.0522,54.904" style="stroke: #A80036; stroke-width: 1.0;"/><!--
@startuml

class eventQueue {
}

class game {
}

class spawner {
}

class factory {
}

class balloon {
}


eventQueue - -> game
eventQueue - -> spawner
eventQueue - -> factory
eventQueue - -> balloon

game    - -> eventQueue
spawner - -> eventQueue
factory - -> eventQueue
balloon - -> eventQueue



@enduml

PlantUML version 1.2018.02(Sat Mar 10 02:20:44 JST 2018)
(GPL source distribution)
Java Runtime: OpenJDK Runtime Environment
JVM: OpenJDK 64-Bit Server VM
Java Version: 1.8.0_162-b12
Operating System: Linux
OS Version: 4.12.14-1-MANJARO
Default Encoding: UTF-8
Language: en
Country: US
--></g></svg>