<?xml version="1.0" encoding="UTF-8" standalone="no"?><svg xmlns="http://www.w3.org/2000/svg" xmlns:xlink="http://www.w3.org/1999/xlink" contentScriptType="application/ecmascript" contentStyleType="text/css" height="313px" preserveAspectRatio="none" style="width:460px;height:313px;" version="1.1" viewBox="0 0 460 313" width="460px" zoomAndPan="magnify"><defs><filter height="300%" id="fxw0o7wv21mf1" width="300%" x="-1" y="-1"><feGaussianBlur result="blurOut" stdDeviation="2.0"/><feColorMatrix in="blurOut" result="blurOut2" type="matrix" values="0 0 0 0 0 0 0 0 0 0 0 0 0 0 0 0 0 0 .4 0"/><feOffset dx="4.0" dy="4.0" in="blurOut2" result="blurOut3"/><feBlend in="SourceGraphic" in2="blurOut3" mode="normal"/></filter></defs><g><rect fill="#FFFFFF" filter="url(#fxw0o7wv21mf1)" height="38" style="stroke: #A80036; stroke-width: 1.0;" width="10" x="298.5" y="238"/><rect fill="#FEFECE" filter="url(#fxw0o7wv21mf1)" height="28" style="stroke: #A80036; stroke-width: 1.5;" width="63" x="193" y="60"/><text fill="#000000" font-family="sans-serif" font-size="14" lengthAdjust="spacingAndGlyphs" textLength="49" x="200" y="79.3184">Spawner</text><line style="stroke: #A80036; stroke-width: 1.0; stroke-dasharray: 5.0,5.0;" x1="48" x2="48" y1="50" y2="301"/><line style="stroke: #A80036; stroke-width: 1.0; stroke-dasharray: 5.0,5.0;" x1="125" x2="125" y1="50" y2="301"/><line style="stroke: #A80036; stroke-width: 1.0; stroke-dasharray: 5.0,5.0;" x1="226" x2="226" y1="91.5" y2="301"/><line style="stroke: #A80036; stroke-width: 1.0; stroke-dasharray: 5.0,5.0;" x1="303" x2="303" y1="50" y2="301"/><rect fill="#FEFECE" filter="url(#fxw0o7wv21mf1)" height="42" style="stroke: #A80036; stroke-width: 1.5;" width="77" x="8" y="3"/><text fill="#000000" font-family="sans-serif" font-size="14" lengthAdjust="spacingAndGlyphs" textLength="63" x="15" y="22.3184">Main loop</text><text fill="#000000" font-family="sans-serif" font-size="14" lengthAdjust="spacingAndGlyphs" textLength="49" x="22" y="36.3184">(Drive)</text><rect fill="#FEFECE" filter="url(#fxw0o7wv21mf1)" height="42" style="stroke: #A80036; stroke-width: 1.5;" width="49" x="99" y="3"/><text fill="#000000" font-family="sans-serif" font-size="14" lengthAdjust="spacingAndGlyphs" textLength="35" x="106" y="22.3184">Event</text><text fill="#000000" font-family="sans-serif" font-size="14" lengthAdjust="spacingAndGlyphs" textLength="35" x="106" y="36.3184">Queue</text><rect fill="#FEFECE" filter="url(#fxw0o7wv21mf1)" height="28" style="stroke: #A80036; stroke-width: 1.5;" width="63" x="270" y="17"/><text fill="#000000" font-family="sans-serif" font-size="14" lengthAdjust="spacingAndGlyphs" textLength="49" x="277" y="36.3184">Factory</text><rect fill="#FFFFFF" filter="url(#fxw0o7wv21mf1)" height="38" style="stroke: #A80036; stroke-width: 1.0;" width="10" x="298.5" y="238"/><polygon fill="#A80036" points="181,62,191,66,181,70,185,66" style="stroke: #A80036; stroke-width: 1.0;"/><line style="stroke: #A80036; stroke-width: 1.0;" x1="48.5" x2="187" y1="66" y2="66"/><rect fill="#FEFECE" filter="url(#fxw0o7wv21mf1)" height="28" style="stroke: #A80036; stroke-width: 1.5;" width="63" x="193" y="60"/><text fill="#000000" font-family="sans-serif" font-size="14" lengthAdjust="spacingAndGlyphs" textLength="49" x="200" y="79.3184">Spawner</text><polygon fill="#A80036" points="136.5,118,126.5,122,136.5,126,132.5,122" style="stroke: #A80036; stroke-width: 1.0;"/><line style="stroke: #A80036; stroke-width: 1.0;" x1="130.5" x2="225.5" y1="122" y2="122"/><text fill="#000000" font-family="sans-serif" font-size="13" lengthAdjust="spacingAndGlyphs" textLength="77" x="142.5" y="118.4385">push(SPAWN)</text><polygon fill="#A80036" points="113.5,145,123.5,149,113.5,153,117.5,149" style="stroke: #A80036; stroke-width: 1.0;"/><line style="stroke: #A80036; stroke-width: 1.0;" x1="48.5" x2="119.5" y1="149" y2="149"/><text fill="#000000" font-family="sans-serif" font-size="13" lengthAdjust="spacingAndGlyphs" textLength="49" x="55.5" y="145.4385">fetch()</text><polygon fill="#A80036" points="59.5,172,49.5,176,59.5,180,55.5,176" style="stroke: #A80036; stroke-width: 1.0;"/><line style="stroke: #A80036; stroke-width: 1.0;" x1="53.5" x2="124.5" y1="176" y2="176"/><text fill="#000000" font-family="sans-serif" font-size="13" lengthAdjust="spacingAndGlyphs" textLength="42" x="65.5" y="172.4385">events</text><polygon fill="#A80036" points="291.5,199,301.5,203,291.5,207,295.5,203" style="stroke: #A80036; stroke-width: 1.0;"/><line style="stroke: #A80036; stroke-width: 1.0;" x1="48.5" x2="297.5" y1="203" y2="203"/><text fill="#000000" font-family="sans-serif" font-size="13" lengthAdjust="spacingAndGlyphs" textLength="91" x="55.5" y="199.4385">event publish</text><line style="stroke: #A80036; stroke-width: 1.0;" x1="303.5" x2="350.5" y1="225" y2="225"/><line style="stroke: #A80036; stroke-width: 1.0;" x1="350.5" x2="350.5" y1="225" y2="238"/><line style="stroke: #A80036; stroke-width: 1.0;" x1="309.5" x2="350.5" y1="238" y2="238"/><polygon fill="#A80036" points="319.5,234,309.5,238,319.5,242,315.5,238" style="stroke: #A80036; stroke-width: 1.0;"/><text fill="#000000" font-family="sans-serif" font-size="13" lengthAdjust="spacingAndGlyphs" textLength="49" x="315.5" y="221.4385">spawn()</text><line style="stroke: #A80036; stroke-width: 1.0;" x1="308.5" x2="350.5" y1="275" y2="275"/><line style="stroke: #A80036; stroke-width: 1.0;" x1="350.5" x2="350.5" y1="275" y2="288"/><line style="stroke: #A80036; stroke-width: 1.0;" x1="303.5" x2="350.5" y1="288" y2="288"/><polygon fill="#A80036" points="313.5,284,303.5,288,313.5,292,309.5,288" style="stroke: #A80036; stroke-width: 1.0;"/><text fill="#000000" font-family="sans-serif" font-size="13" lengthAdjust="spacingAndGlyphs" textLength="133" x="315.5" y="271.4385">spawn a new balloon</text><!--
@startuml

hide footbox

participant "Main loop\n(Drive)" as m
participant "Event\nQueue"       as eq
participant Spawner              as s
participant Factory              as f

create s
m -> s
s -> eq : push(SPAWN)
m -> eq : fetch()
m <- eq : events
m -> f : event publish
f -> f : spawn()
activate f
  f -> f : spawn a new balloon
deactivate f




@enduml

PlantUML version 1.2018.02(Sat Mar 10 02:20:44 JST 2018)
(GPL source distribution)
Java Runtime: OpenJDK Runtime Environment
JVM: OpenJDK 64-Bit Server VM
Java Version: 1.8.0_162-b12
Operating System: Linux
OS Version: 4.12.14-1-MANJARO
Default Encoding: UTF-8
Language: en
Country: US
--></g></svg>