<?xml version="1.0" encoding="UTF-8" standalone="no"?><svg xmlns="http://www.w3.org/2000/svg" xmlns:xlink="http://www.w3.org/1999/xlink" contentScriptType="application/ecmascript" contentStyleType="text/css" height="190px" preserveAspectRatio="none" style="width:478px;height:190px;" version="1.1" viewBox="0 0 478 190" width="478px" zoomAndPan="magnify"><defs><filter height="300%" id="fjcbcj5win1nf" width="300%" x="-1" y="-1"><feGaussianBlur result="blurOut" stdDeviation="2.0"/><feColorMatrix in="blurOut" result="blurOut2" type="matrix" values="0 0 0 0 0 0 0 0 0 0 0 0 0 0 0 0 0 0 .4 0"/><feOffset dx="4.0" dy="4.0" in="blurOut2" result="blurOut3"/><feBlend in="SourceGraphic" in2="blurOut3" mode="normal"/></filter></defs><g><!--class eventQueue--><rect fill="#FEFECE" filter="url(#fjcbcj5win1nf)" height="48" id="eventQueue" style="stroke: #A80036; stroke-width: 1.5;" width="92" x="195" y="8"/><ellipse cx="210" cy="24" fill="#ADD1B2" rx="11" ry="11" style="stroke: #A80036; stroke-width: 1.0;"/><path d="M213.3906,25.9844 Q212.9688,30.9688 209.6563,30.9688 Q207.7031,30.9688 206.6563,28.9688 Q205.7813,27.2969 205.7813,24.3594 Q205.7813,21.3438 206.75,19.5781 Q207.75,17.7031 209.6563,17.7031 Q212.6875,17.7031 213.3125,22.1406 L211.2344,22.1406 Q210.875,19.6719 209.6563,19.6719 Q207.9219,19.6719 207.9219,24.3594 Q207.9219,29 209.6719,29 Q211.1094,29 211.2656,25.9844 L213.3906,25.9844 Z "/><text fill="#000000" font-family="sans-serif" font-size="12" lengthAdjust="spacingAndGlyphs" textLength="60" x="224" y="28.5586">eventQueue</text><line style="stroke: #A80036; stroke-width: 1.5;" x1="196" x2="286" y1="40" y2="40"/><line style="stroke: #A80036; stroke-width: 1.5;" x1="196" x2="286" y1="48" y2="48"/><!--class game--><rect fill="#FEFECE" filter="url(#fjcbcj5win1nf)" height="48" id="game" style="stroke: #A80036; stroke-width: 1.5;" width="56" x="6" y="131"/><ellipse cx="21" cy="147" fill="#ADD1B2" rx="11" ry="11" style="stroke: #A80036; stroke-width: 1.0;"/><path d="M24.3906,148.9844 Q23.9688,153.9688 20.6563,153.9688 Q18.7031,153.9688 17.6563,151.9688 Q16.7813,150.2969 16.7813,147.3594 Q16.7813,144.3438 17.75,142.5781 Q18.75,140.7031 20.6563,140.7031 Q23.6875,140.7031 24.3125,145.1406 L22.2344,145.1406 Q21.875,142.6719 20.6563,142.6719 Q18.9219,142.6719 18.9219,147.3594 Q18.9219,152 20.6719,152 Q22.1094,152 22.2656,148.9844 L24.3906,148.9844 Z "/><text fill="#000000" font-family="sans-serif" font-size="12" lengthAdjust="spacingAndGlyphs" textLength="24" x="35" y="151.5586">game</text><line style="stroke: #A80036; stroke-width: 1.5;" x1="7" x2="61" y1="163" y2="163"/><line style="stroke: #A80036; stroke-width: 1.5;" x1="7" x2="61" y1="171" y2="171"/><!--class spawner--><rect fill="#FEFECE" filter="url(#fjcbcj5win1nf)" height="48" id="spawner" style="stroke: #A80036; stroke-width: 1.5;" width="74" x="118" y="131"/><ellipse cx="133" cy="147" fill="#ADD1B2" rx="11" ry="11" style="stroke: #A80036; stroke-width: 1.0;"/><path d="M136.3906,148.9844 Q135.9688,153.9688 132.6563,153.9688 Q130.7031,153.9688 129.6563,151.9688 Q128.7813,150.2969 128.7813,147.3594 Q128.7813,144.3438 129.75,142.5781 Q130.75,140.7031 132.6563,140.7031 Q135.6875,140.7031 136.3125,145.1406 L134.2344,145.1406 Q133.875,142.6719 132.6563,142.6719 Q130.9219,142.6719 130.9219,147.3594 Q130.9219,152 132.6719,152 Q134.1094,152 134.2656,148.9844 L136.3906,148.9844 Z "/><text fill="#000000" font-family="sans-serif" font-size="12" lengthAdjust="spacingAndGlyphs" textLength="42" x="147" y="151.5586">spawner</text><line style="stroke: #A80036; stroke-width: 1.5;" x1="119" x2="191" y1="163" y2="163"/><line style="stroke: #A80036; stroke-width: 1.5;" x1="119" x2="191" y1="171" y2="171"/><!--class factory--><rect fill="#FEFECE" filter="url(#fjcbcj5win1nf)" height="48" id="factory" style="stroke: #A80036; stroke-width: 1.5;" width="74" x="244" y="131"/><ellipse cx="259" cy="147" fill="#ADD1B2" rx="11" ry="11" style="stroke: #A80036; stroke-width: 1.0;"/><path d="M262.3906,148.9844 Q261.9688,153.9688 258.6563,153.9688 Q256.7031,153.9688 255.6563,151.9688 Q254.7813,150.2969 254.7813,147.3594 Q254.7813,144.3438 255.75,142.5781 Q256.75,140.7031 258.6563,140.7031 Q261.6875,140.7031 262.3125,145.1406 L260.2344,145.1406 Q259.875,142.6719 258.6563,142.6719 Q256.9219,142.6719 256.9219,147.3594 Q256.9219,152 258.6719,152 Q260.1094,152 260.2656,148.9844 L262.3906,148.9844 Z "/><text fill="#000000" font-family="sans-serif" font-size="12" lengthAdjust="spacingAndGlyphs" textLength="42" x="273" y="151.5586">factory</text><line style="stroke: #A80036; stroke-width: 1.5;" x1="245" x2="317" y1="163" y2="163"/><line style="stroke: #A80036; stroke-width: 1.5;" x1="245" x2="317" y1="171" y2="171"/><!--class balloon--><rect fill="#FEFECE" filter="url(#fjcbcj5win1nf)" height="48" id="balloon" style="stroke: #A80036; stroke-width: 1.5;" width="74" x="393" y="131"/><ellipse cx="408" cy="147" fill="#ADD1B2" rx="11" ry="11" style="stroke: #A80036; stroke-width: 1.0;"/><path d="M411.3906,148.9844 Q410.9688,153.9688 407.6563,153.9688 Q405.7031,153.9688 404.6563,151.9688 Q403.7813,150.2969 403.7813,147.3594 Q403.7813,144.3438 404.75,142.5781 Q405.75,140.7031 407.6563,140.7031 Q410.6875,140.7031 411.3125,145.1406 L409.2344,145.1406 Q408.875,142.6719 407.6563,142.6719 Q405.9219,142.6719 405.9219,147.3594 Q405.9219,152 407.6719,152 Q409.1094,152 409.2656,148.9844 L411.3906,148.9844 Z "/><text fill="#000000" font-family="sans-serif" font-size="12" lengthAdjust="spacingAndGlyphs" textLength="42" x="422" y="151.5586">balloon</text><line style="stroke: #A80036; stroke-width: 1.5;" x1="394" x2="466" y1="163" y2="163"/><line style="stroke: #A80036; stroke-width: 1.5;" x1="394" x2="466" y1="171" y2="171"/><!--link eventQueue to game--><path d="M194.8766,36.5406 C136.1214,43.3876 39.5824,58.5676 18,86 C9.1288,97.2758 11.667,112.6055 17.0576,125.952 " fill="none" id="eventQueue-game" style="stroke: #A80036; stroke-width: 1.0;"/><polygon fill="#A80036" points="19.1568,130.7682,19.2275,120.9196,17.159,126.1847,11.8939,124.1161,19.1568,130.7682" style="stroke: #A80036; stroke-width: 1.0;"/><text fill="#000000" font-family="sans-serif" font-size="13" lengthAdjust="spacingAndGlyphs" textLength="21" x="19" y="98.4385">pub</text><!--link game to eventQueue--><path d="M55.5093,130.8969 C69.3914,116.4296 88.455,98.4744 108,86 C133.4122,69.7809 164.5061,56.8322 190.2376,47.6848 " fill="none" id="game-eventQueue" style="stroke: #A80036; stroke-width: 1.0;"/><polygon fill="#A80036" points="194.9772,46.0211,185.1603,45.228,190.2595,47.6773,187.8102,52.7764,194.9772,46.0211" style="stroke: #A80036; stroke-width: 1.0;"/><text fill="#000000" font-family="sans-serif" font-size="13" lengthAdjust="spacingAndGlyphs" textLength="21" x="109" y="98.4385">sub</text><!--link eventQueue to spawner--><path d="M194.8522,45.9277 C175.5877,54.2777 155.1345,67.0578 144,86 C136.9995,97.9094 138.4043,112.8777 142.1214,125.8265 " fill="none" id="eventQueue-spawner" style="stroke: #A80036; stroke-width: 1.0;"/><polygon fill="#A80036" points="143.7097,130.8645,144.8185,121.0783,142.2063,126.0959,137.1887,123.4837,143.7097,130.8645" style="stroke: #A80036; stroke-width: 1.0;"/><text fill="#000000" font-family="sans-serif" font-size="13" lengthAdjust="spacingAndGlyphs" textLength="21" x="145" y="98.4385">pub</text><!--link spawner to eventQueue--><path d="M172.0374,130.6326 C186.2239,110.3426 206.4367,81.4336 221.3134,60.1565 " fill="none" id="spawner-eventQueue" style="stroke: #A80036; stroke-width: 1.0;"/><polygon fill="#A80036" points="224.2142,56.0076,215.7788,61.0913,221.3491,60.1053,222.3351,65.6755,224.2142,56.0076" style="stroke: #A80036; stroke-width: 1.0;"/><text fill="#000000" font-family="sans-serif" font-size="13" lengthAdjust="spacingAndGlyphs" textLength="21" x="204" y="98.4385">sub</text><!--link eventQueue to factory--><path d="M248.8074,56.0076 C255.2903,75.9425 264.537,104.3763 271.4584,125.6597 " fill="none" id="eventQueue-factory" style="stroke: #A80036; stroke-width: 1.0;"/><polygon fill="#A80036" points="273.0756,130.6326,274.096,120.8367,271.5292,125.8777,266.4882,123.311,273.0756,130.6326" style="stroke: #A80036; stroke-width: 1.0;"/><text fill="#000000" font-family="sans-serif" font-size="13" lengthAdjust="spacingAndGlyphs" textLength="21" x="264" y="98.4385">pub</text><!--link factory to eventQueue--><path d="M292.1481,130.6904 C296.753,117.1548 299.8114,100.2175 294,86 C290.0277,76.2819 283.37,67.3685 276.0908,59.7046 " fill="none" id="factory-eventQueue" style="stroke: #A80036; stroke-width: 1.0;"/><polygon fill="#A80036" points="272.4765,56.0447,275.9542,65.2591,275.9898,59.6024,281.6465,59.6379,272.4765,56.0447" style="stroke: #A80036; stroke-width: 1.0;"/><text fill="#000000" font-family="sans-serif" font-size="13" lengthAdjust="spacingAndGlyphs" textLength="21" x="298" y="98.4385">sub</text><!--link eventQueue to balloon--><path d="M280.6176,56.1369 C295.5507,65.3534 312.6353,76.0402 328,86 C348.8483,99.5144 371.7876,114.9779 390.6233,127.8361 " fill="none" id="eventQueue-balloon" style="stroke: #A80036; stroke-width: 1.0;"/><polygon fill="#A80036" points="394.8238,130.7068,389.6503,122.3262,390.6958,127.8856,385.1363,128.931,394.8238,130.7068" style="stroke: #A80036; stroke-width: 1.0;"/><text fill="#000000" font-family="sans-serif" font-size="13" lengthAdjust="spacingAndGlyphs" textLength="21" x="351" y="98.4385">pub</text><!--link balloon to eventQueue--><path d="M417.62,130.8255 C409.0517,116.1474 396.4287,97.9919 381,86 C354.9453,65.7491 320.3975,52.3176 292.1408,43.9152 " fill="none" id="balloon-eventQueue" style="stroke: #A80036; stroke-width: 1.0;"/><polygon fill="#A80036" points="287.3028,42.5071,294.8264,48.8628,292.1036,43.9044,297.062,41.1815,287.3028,42.5071" style="stroke: #A80036; stroke-width: 1.0;"/><text fill="#000000" font-family="sans-serif" font-size="13" lengthAdjust="spacingAndGlyphs" textLength="21" x="396" y="98.4385">sub</text><!--
@startuml

class eventQueue {
}

class game {
}

class spawner {
}

class factory {
}

class balloon {
}


eventQueue - -> game    : pub
eventQueue - -> spawner : pub
eventQueue - -> factory : pub
eventQueue - -> balloon : pub

game    - -> eventQueue : sub
spawner - -> eventQueue : sub
factory - -> eventQueue : sub
balloon - -> eventQueue : sub

@enduml

PlantUML version 1.2018.02(Sat Mar 10 02:20:44 JST 2018)
(GPL source distribution)
Java Runtime: OpenJDK Runtime Environment
JVM: OpenJDK 64-Bit Server VM
Java Version: 1.8.0_162-b12
Operating System: Linux
OS Version: 4.12.14-1-MANJARO
Default Encoding: UTF-8
Language: en
Country: US
--></g></svg>