<?xml version="1.0" encoding="UTF-8" standalone="no"?><svg xmlns="http://www.w3.org/2000/svg" xmlns:xlink="http://www.w3.org/1999/xlink" contentScriptType="application/ecmascript" contentStyleType="text/css" height="126px" preserveAspectRatio="none" style="width:527px;height:126px;" version="1.1" viewBox="0 0 527 126" width="527px" zoomAndPan="magnify"><defs><filter height="300%" id="f1oy1msw0u6ke9" width="300%" x="-1" y="-1"><feGaussianBlur result="blurOut" stdDeviation="2.0"/><feColorMatrix in="blurOut" result="blurOut2" type="matrix" values="0 0 0 0 0 0 0 0 0 0 0 0 0 0 0 0 0 0 .4 0"/><feOffset dx="4.0" dy="4.0" in="blurOut2" result="blurOut3"/><feBlend in="SourceGraphic" in2="blurOut3" mode="normal"/></filter></defs><g><!--class game--><rect fill="#FEFECE" filter="url(#f1oy1msw0u6ke9)" height="48" id="game" style="stroke: #A80036; stroke-width: 1.5;" width="56" x="460" y="67"/><ellipse cx="475" cy="83" fill="#ADD1B2" rx="11" ry="11" style="stroke: #A80036; stroke-width: 1.0;"/><path d="M478.3906,84.9844 Q477.9688,89.9688 474.6563,89.9688 Q472.7031,89.9688 471.6563,87.9688 Q470.7813,86.2969 470.7813,83.3594 Q470.7813,80.3438 471.75,78.5781 Q472.75,76.7031 474.6563,76.7031 Q477.6875,76.7031 478.3125,81.1406 L476.2344,81.1406 Q475.875,78.6719 474.6563,78.6719 Q472.9219,78.6719 472.9219,83.3594 Q472.9219,88 474.6719,88 Q476.1094,88 476.2656,84.9844 L478.3906,84.9844 Z "/><text fill="#000000" font-family="sans-serif" font-size="12" lengthAdjust="spacingAndGlyphs" textLength="24" x="489" y="87.5586">game</text><line style="stroke: #A80036; stroke-width: 1.5;" x1="461" x2="515" y1="99" y2="99"/><line style="stroke: #A80036; stroke-width: 1.5;" x1="461" x2="515" y1="107" y2="107"/><!--class eventQueue--><rect fill="#FEFECE" filter="url(#f1oy1msw0u6ke9)" height="48" id="eventQueue" style="stroke: #A80036; stroke-width: 1.5;" width="92" x="6" y="67"/><ellipse cx="21" cy="83" fill="#ADD1B2" rx="11" ry="11" style="stroke: #A80036; stroke-width: 1.0;"/><path d="M24.3906,84.9844 Q23.9688,89.9688 20.6563,89.9688 Q18.7031,89.9688 17.6563,87.9688 Q16.7813,86.2969 16.7813,83.3594 Q16.7813,80.3438 17.75,78.5781 Q18.75,76.7031 20.6563,76.7031 Q23.6875,76.7031 24.3125,81.1406 L22.2344,81.1406 Q21.875,78.6719 20.6563,78.6719 Q18.9219,78.6719 18.9219,83.3594 Q18.9219,88 20.6719,88 Q22.1094,88 22.2656,84.9844 L24.3906,84.9844 Z "/><text fill="#000000" font-family="sans-serif" font-size="12" lengthAdjust="spacingAndGlyphs" textLength="60" x="35" y="87.5586">eventQueue</text><line style="stroke: #A80036; stroke-width: 1.5;" x1="7" x2="97" y1="99" y2="99"/><line style="stroke: #A80036; stroke-width: 1.5;" x1="7" x2="97" y1="107" y2="107"/><!--class spawner--><rect fill="#FEFECE" filter="url(#f1oy1msw0u6ke9)" height="48" id="spawner" style="stroke: #A80036; stroke-width: 1.5;" width="74" x="351" y="67"/><ellipse cx="366" cy="83" fill="#ADD1B2" rx="11" ry="11" style="stroke: #A80036; stroke-width: 1.0;"/><path d="M369.3906,84.9844 Q368.9688,89.9688 365.6563,89.9688 Q363.7031,89.9688 362.6563,87.9688 Q361.7813,86.2969 361.7813,83.3594 Q361.7813,80.3438 362.75,78.5781 Q363.75,76.7031 365.6563,76.7031 Q368.6875,76.7031 369.3125,81.1406 L367.2344,81.1406 Q366.875,78.6719 365.6563,78.6719 Q363.9219,78.6719 363.9219,83.3594 Q363.9219,88 365.6719,88 Q367.1094,88 367.2656,84.9844 L369.3906,84.9844 Z "/><text fill="#000000" font-family="sans-serif" font-size="12" lengthAdjust="spacingAndGlyphs" textLength="42" x="380" y="87.5586">spawner</text><line style="stroke: #A80036; stroke-width: 1.5;" x1="352" x2="424" y1="99" y2="99"/><line style="stroke: #A80036; stroke-width: 1.5;" x1="352" x2="424" y1="107" y2="107"/><!--class factory--><rect fill="#FEFECE" filter="url(#f1oy1msw0u6ke9)" height="48" id="factory" style="stroke: #A80036; stroke-width: 1.5;" width="74" x="242" y="67"/><ellipse cx="257" cy="83" fill="#ADD1B2" rx="11" ry="11" style="stroke: #A80036; stroke-width: 1.0;"/><path d="M260.3906,84.9844 Q259.9688,89.9688 256.6563,89.9688 Q254.7031,89.9688 253.6563,87.9688 Q252.7813,86.2969 252.7813,83.3594 Q252.7813,80.3438 253.75,78.5781 Q254.75,76.7031 256.6563,76.7031 Q259.6875,76.7031 260.3125,81.1406 L258.2344,81.1406 Q257.875,78.6719 256.6563,78.6719 Q254.9219,78.6719 254.9219,83.3594 Q254.9219,88 256.6719,88 Q258.1094,88 258.2656,84.9844 L260.3906,84.9844 Z "/><text fill="#000000" font-family="sans-serif" font-size="12" lengthAdjust="spacingAndGlyphs" textLength="42" x="271" y="87.5586">factory</text><line style="stroke: #A80036; stroke-width: 1.5;" x1="243" x2="315" y1="99" y2="99"/><line style="stroke: #A80036; stroke-width: 1.5;" x1="243" x2="315" y1="107" y2="107"/><!--class balloon--><rect fill="#FEFECE" filter="url(#f1oy1msw0u6ke9)" height="48" id="balloon" style="stroke: #A80036; stroke-width: 1.5;" width="74" x="133" y="67"/><ellipse cx="148" cy="83" fill="#ADD1B2" rx="11" ry="11" style="stroke: #A80036; stroke-width: 1.0;"/><path d="M151.3906,84.9844 Q150.9688,89.9688 147.6563,89.9688 Q145.7031,89.9688 144.6563,87.9688 Q143.7813,86.2969 143.7813,83.3594 Q143.7813,80.3438 144.75,78.5781 Q145.75,76.7031 147.6563,76.7031 Q150.6875,76.7031 151.3125,81.1406 L149.2344,81.1406 Q148.875,78.6719 147.6563,78.6719 Q145.9219,78.6719 145.9219,83.3594 Q145.9219,88 147.6719,88 Q149.1094,88 149.2656,84.9844 L151.3906,84.9844 Z "/><text fill="#000000" font-family="sans-serif" font-size="12" lengthAdjust="spacingAndGlyphs" textLength="42" x="162" y="87.5586">balloon</text><line style="stroke: #A80036; stroke-width: 1.5;" x1="134" x2="206" y1="99" y2="99"/><line style="stroke: #A80036; stroke-width: 1.5;" x1="134" x2="206" y1="107" y2="107"/><!--link eventQueue to game--><path d="M84.9549,66.7695 C97.6489,58.8397 112.701,51.0349 127.6667,47 C192.8216,29.4333 367.4955,25.1258 431.3333,47 C441.6618,50.5391 451.5609,56.8132 460.1138,63.5345 " fill="none" id="eventQueue-game" style="stroke: #A80036; stroke-width: 1.0;"/><polygon fill="#A80036" points="464.2003,66.8599,459.7441,58.0768,460.3221,63.7041,454.6948,64.282,464.2003,66.8599" style="stroke: #A80036; stroke-width: 1.0;"/><!--link game to eventQueue--><path d="M470.0353,66.7022 C457.6959,52.1646 439.923,35.0046 419.6667,27 C361.7299,4.1054 198.5411,7.628 139.3333,27 C117.0992,34.2747 95.843,49.6019 79.8686,63.4329 " fill="none" id="game-eventQueue" style="stroke: #A80036; stroke-width: 1.0;"/><polygon fill="#A80036" points="75.9238,66.9112,85.3199,63.9593,79.6742,63.6044,80.029,57.9587,75.9238,66.9112" style="stroke: #A80036; stroke-width: 1.0;"/><!--link eventQueue to spawner--><path d="M84.9549,66.7695 C97.6489,58.8397 112.701,51.0349 127.6667,47 C211.2023,24.4776 239.5565,21.8315 322.3333,47 C334.0515,50.5629 345.5804,56.9895 355.6278,63.85 " fill="none" id="eventQueue-spawner" style="stroke: #A80036; stroke-width: 1.0;"/><polygon fill="#A80036" points="359.8393,66.8097,354.7758,58.3621,355.7485,63.9347,350.1759,64.9074,359.8393,66.8097" style="stroke: #A80036; stroke-width: 1.0;"/><!--link spawner to eventQueue--><path d="M367.3374,66.965 C353.0972,52.3334 332.8019,34.9715 310.6667,27 C239.0227,1.1991 211.7061,3.3205 139.3333,27 C117.0992,34.2747 95.843,49.6019 79.8686,63.4329 " fill="none" id="spawner-eventQueue" style="stroke: #A80036; stroke-width: 1.0;"/><polygon fill="#A80036" points="75.9238,66.9112,85.3199,63.9593,79.6742,63.6044,80.029,57.9587,75.9238,66.9112" style="stroke: #A80036; stroke-width: 1.0;"/><!--link eventQueue to factory--><path d="M84.9549,66.7695 C97.6489,58.8397 112.701,51.0349 127.6667,47 C164.4281,37.0886 176.9059,35.9241 213.3333,47 C225.0515,50.5629 236.5804,56.9895 246.6278,63.85 " fill="none" id="eventQueue-factory" style="stroke: #A80036; stroke-width: 1.0;"/><polygon fill="#A80036" points="250.8393,66.8097,245.7758,58.3621,246.7485,63.9347,241.1759,64.9074,250.8393,66.8097" style="stroke: #A80036; stroke-width: 1.0;"/><!--link factory to eventQueue--><path d="M258.3374,66.965 C244.0972,52.3334 223.8019,34.9715 201.6667,27 C175.6017,17.6133 165.6635,18.3851 139.3333,27 C117.0992,34.2747 95.843,49.6019 79.8686,63.4329 " fill="none" id="factory-eventQueue" style="stroke: #A80036; stroke-width: 1.0;"/><polygon fill="#A80036" points="75.9238,66.9112,85.3199,63.9593,79.6742,63.6044,80.029,57.9587,75.9238,66.9112" style="stroke: #A80036; stroke-width: 1.0;"/><!--link eventQueue to balloon--><path d="M98.0938,108.1387 C107.9803,109.4583 117.8668,109.2616 127.7533,107.5487 " fill="none" id="eventQueue-balloon" style="stroke: #A80036; stroke-width: 1.0;"/><polygon fill="#A80036" points="132.9233,106.5147,123.3136,104.3574,128.0204,107.4953,124.8825,112.2021,132.9233,106.5147" style="stroke: #A80036; stroke-width: 1.0;"/><!--link balloon to eventQueue--><path d="M132.9233,75.4853 C123.0368,73.2438 113.1503,72.5185 103.2638,73.3095 " fill="none" id="balloon-eventQueue" style="stroke: #A80036; stroke-width: 1.0;"/><polygon fill="#A80036" points="98.0938,73.8613,107.4676,76.8832,103.0655,73.3305,106.6183,68.9284,98.0938,73.8613" style="stroke: #A80036; stroke-width: 1.0;"/><!--
@startuml

class game {
}

class eventQueue {
}

class spawner {
}

class factory {
}

class balloon {
}


eventQueue - -> game
eventQueue - -> spawner
eventQueue - -> factory
eventQueue - -> balloon

game -> eventQueue
spawner -> eventQueue
factory -> eventQueue
balloon -> eventQueue



@enduml

PlantUML version 1.2018.02(Sat Mar 10 02:20:44 JST 2018)
(GPL source distribution)
Java Runtime: OpenJDK Runtime Environment
JVM: OpenJDK 64-Bit Server VM
Java Version: 1.8.0_162-b12
Operating System: Linux
OS Version: 4.12.14-1-MANJARO
Default Encoding: UTF-8
Language: en
Country: US
--></g></svg>