<?xml version="1.0" encoding="UTF-8" standalone="no"?><svg xmlns="http://www.w3.org/2000/svg" xmlns:xlink="http://www.w3.org/1999/xlink" contentScriptType="application/ecmascript" contentStyleType="text/css" height="67px" preserveAspectRatio="none" style="width:527px;height:67px;" version="1.1" viewBox="0 0 527 67" width="527px" zoomAndPan="magnify"><defs><filter height="300%" id="fvhui8l7o81rv" width="300%" x="-1" y="-1"><feGaussianBlur result="blurOut" stdDeviation="2.0"/><feColorMatrix in="blurOut" result="blurOut2" type="matrix" values="0 0 0 0 0 0 0 0 0 0 0 0 0 0 0 0 0 0 .4 0"/><feOffset dx="4.0" dy="4.0" in="blurOut2" result="blurOut3"/><feBlend in="SourceGraphic" in2="blurOut3" mode="normal"/></filter></defs><g><!--class game--><rect fill="#FEFECE" filter="url(#fvhui8l7o81rv)" height="48" id="game" style="stroke: #A80036; stroke-width: 1.5;" width="56" x="6" y="8"/><ellipse cx="21" cy="24" fill="#ADD1B2" rx="11" ry="11" style="stroke: #A80036; stroke-width: 1.0;"/><path d="M24.3906,25.9844 Q23.9688,30.9688 20.6563,30.9688 Q18.7031,30.9688 17.6563,28.9688 Q16.7813,27.2969 16.7813,24.3594 Q16.7813,21.3438 17.75,19.5781 Q18.75,17.7031 20.6563,17.7031 Q23.6875,17.7031 24.3125,22.1406 L22.2344,22.1406 Q21.875,19.6719 20.6563,19.6719 Q18.9219,19.6719 18.9219,24.3594 Q18.9219,29 20.6719,29 Q22.1094,29 22.2656,25.9844 L24.3906,25.9844 Z "/><text fill="#000000" font-family="sans-serif" font-size="12" lengthAdjust="spacingAndGlyphs" textLength="24" x="35" y="28.5586">game</text><line style="stroke: #A80036; stroke-width: 1.5;" x1="7" x2="61" y1="40" y2="40"/><line style="stroke: #A80036; stroke-width: 1.5;" x1="7" x2="61" y1="48" y2="48"/><!--class eventQueue--><rect fill="#FEFECE" filter="url(#fvhui8l7o81rv)" height="48" id="eventQueue" style="stroke: #A80036; stroke-width: 1.5;" width="92" x="424" y="8"/><ellipse cx="439" cy="24" fill="#ADD1B2" rx="11" ry="11" style="stroke: #A80036; stroke-width: 1.0;"/><path d="M442.3906,25.9844 Q441.9688,30.9688 438.6563,30.9688 Q436.7031,30.9688 435.6563,28.9688 Q434.7813,27.2969 434.7813,24.3594 Q434.7813,21.3438 435.75,19.5781 Q436.75,17.7031 438.6563,17.7031 Q441.6875,17.7031 442.3125,22.1406 L440.2344,22.1406 Q439.875,19.6719 438.6563,19.6719 Q436.9219,19.6719 436.9219,24.3594 Q436.9219,29 438.6719,29 Q440.1094,29 440.2656,25.9844 L442.3906,25.9844 Z "/><text fill="#000000" font-family="sans-serif" font-size="12" lengthAdjust="spacingAndGlyphs" textLength="60" x="453" y="28.5586">eventQueue</text><line style="stroke: #A80036; stroke-width: 1.5;" x1="425" x2="515" y1="40" y2="40"/><line style="stroke: #A80036; stroke-width: 1.5;" x1="425" x2="515" y1="48" y2="48"/><!--class spawner--><rect fill="#FEFECE" filter="url(#fvhui8l7o81rv)" height="48" id="spawner" style="stroke: #A80036; stroke-width: 1.5;" width="74" x="97" y="8"/><ellipse cx="112" cy="24" fill="#ADD1B2" rx="11" ry="11" style="stroke: #A80036; stroke-width: 1.0;"/><path d="M115.3906,25.9844 Q114.9688,30.9688 111.6563,30.9688 Q109.7031,30.9688 108.6563,28.9688 Q107.7813,27.2969 107.7813,24.3594 Q107.7813,21.3438 108.75,19.5781 Q109.75,17.7031 111.6563,17.7031 Q114.6875,17.7031 115.3125,22.1406 L113.2344,22.1406 Q112.875,19.6719 111.6563,19.6719 Q109.9219,19.6719 109.9219,24.3594 Q109.9219,29 111.6719,29 Q113.1094,29 113.2656,25.9844 L115.3906,25.9844 Z "/><text fill="#000000" font-family="sans-serif" font-size="12" lengthAdjust="spacingAndGlyphs" textLength="42" x="126" y="28.5586">spawner</text><line style="stroke: #A80036; stroke-width: 1.5;" x1="98" x2="170" y1="40" y2="40"/><line style="stroke: #A80036; stroke-width: 1.5;" x1="98" x2="170" y1="48" y2="48"/><!--class factory--><rect fill="#FEFECE" filter="url(#fvhui8l7o81rv)" height="48" id="factory" style="stroke: #A80036; stroke-width: 1.5;" width="74" x="206" y="8"/><ellipse cx="221" cy="24" fill="#ADD1B2" rx="11" ry="11" style="stroke: #A80036; stroke-width: 1.0;"/><path d="M224.3906,25.9844 Q223.9688,30.9688 220.6563,30.9688 Q218.7031,30.9688 217.6563,28.9688 Q216.7813,27.2969 216.7813,24.3594 Q216.7813,21.3438 217.75,19.5781 Q218.75,17.7031 220.6563,17.7031 Q223.6875,17.7031 224.3125,22.1406 L222.2344,22.1406 Q221.875,19.6719 220.6563,19.6719 Q218.9219,19.6719 218.9219,24.3594 Q218.9219,29 220.6719,29 Q222.1094,29 222.2656,25.9844 L224.3906,25.9844 Z "/><text fill="#000000" font-family="sans-serif" font-size="12" lengthAdjust="spacingAndGlyphs" textLength="42" x="235" y="28.5586">factory</text><line style="stroke: #A80036; stroke-width: 1.5;" x1="207" x2="279" y1="40" y2="40"/><line style="stroke: #A80036; stroke-width: 1.5;" x1="207" x2="279" y1="48" y2="48"/><!--class balloon--><rect fill="#FEFECE" filter="url(#fvhui8l7o81rv)" height="48" id="balloon" style="stroke: #A80036; stroke-width: 1.5;" width="74" x="315" y="8"/><ellipse cx="330" cy="24" fill="#ADD1B2" rx="11" ry="11" style="stroke: #A80036; stroke-width: 1.0;"/><path d="M333.3906,25.9844 Q332.9688,30.9688 329.6563,30.9688 Q327.7031,30.9688 326.6563,28.9688 Q325.7813,27.2969 325.7813,24.3594 Q325.7813,21.3438 326.75,19.5781 Q327.75,17.7031 329.6563,17.7031 Q332.6875,17.7031 333.3125,22.1406 L331.2344,22.1406 Q330.875,19.6719 329.6563,19.6719 Q327.9219,19.6719 327.9219,24.3594 Q327.9219,29 329.6719,29 Q331.1094,29 331.2656,25.9844 L333.3906,25.9844 Z "/><text fill="#000000" font-family="sans-serif" font-size="12" lengthAdjust="spacingAndGlyphs" textLength="42" x="344" y="28.5586">balloon</text><line style="stroke: #A80036; stroke-width: 1.5;" x1="316" x2="388" y1="40" y2="40"/><line style="stroke: #A80036; stroke-width: 1.5;" x1="316" x2="388" y1="48" y2="48"/><!--link game to spawner--><path d="M62.125,32 C72.0072,32 81.8895,32 91.7717,32 " fill="none" id="game-spawner" style="stroke: #A80036; stroke-width: 1.0;"/><polygon fill="#A80036" points="96.9395,32,87.9395,28,91.9395,32,87.9395,36,96.9395,32" style="stroke: #A80036; stroke-width: 1.0;"/><!--link spawner to factory--><path d="M171.043,32 C180.9365,32 190.83,32 200.7235,32 " fill="none" id="spawner-factory" style="stroke: #A80036; stroke-width: 1.0;"/><polygon fill="#A80036" points="205.8972,32,196.8972,28,200.8972,32,196.8972,36,205.8972,32" style="stroke: #A80036; stroke-width: 1.0;"/><!--link factory to balloon--><path d="M280.043,32 C289.9365,32 299.83,32 309.7235,32 " fill="none" id="factory-balloon" style="stroke: #A80036; stroke-width: 1.0;"/><polygon fill="#A80036" points="314.8972,32,305.8972,28,309.8972,32,305.8972,36,314.8972,32" style="stroke: #A80036; stroke-width: 1.0;"/><!--
@startuml

class game {
}

class eventQueue {
}

class spawner {
}

class factory {
}

class balloon {
}


game -> spawner
spawner -> factory
factory -> balloon

@enduml

PlantUML version 1.2018.02(Sat Mar 10 02:20:44 JST 2018)
(GPL source distribution)
Java Runtime: OpenJDK Runtime Environment
JVM: OpenJDK 64-Bit Server VM
Java Version: 1.8.0_162-b12
Operating System: Linux
OS Version: 4.12.14-1-MANJARO
Default Encoding: UTF-8
Language: en
Country: US
--></g></svg>