<?xml version="1.0" encoding="UTF-8" standalone="no"?><svg xmlns="http://www.w3.org/2000/svg" xmlns:xlink="http://www.w3.org/1999/xlink" contentScriptType="application/ecmascript" contentStyleType="text/css" height="190px" preserveAspectRatio="none" style="width:709px;height:190px;" version="1.1" viewBox="0 0 709 190" width="709px" zoomAndPan="magnify"><defs><filter height="300%" id="f1dfev0t61y569" width="300%" x="-1" y="-1"><feGaussianBlur result="blurOut" stdDeviation="2.0"/><feColorMatrix in="blurOut" result="blurOut2" type="matrix" values="0 0 0 0 0 0 0 0 0 0 0 0 0 0 0 0 0 0 .4 0"/><feOffset dx="4.0" dy="4.0" in="blurOut2" result="blurOut3"/><feBlend in="SourceGraphic" in2="blurOut3" mode="normal"/></filter></defs><g><!--class eventQueue--><rect fill="#FEFECE" filter="url(#f1dfev0t61y569)" height="48" id="eventQueue" style="stroke: #A80036; stroke-width: 1.5;" width="92" x="307.2267" y="8"/><ellipse cx="322.2267" cy="24" fill="#ADD1B2" rx="11" ry="11" style="stroke: #A80036; stroke-width: 1.0;"/><path d="M325.6173,25.9844 Q325.1955,30.9688 321.883,30.9688 Q319.9298,30.9688 318.883,28.9688 Q318.008,27.2969 318.008,24.3594 Q318.008,21.3438 318.9767,19.5781 Q319.9767,17.7031 321.883,17.7031 Q324.9142,17.7031 325.5392,22.1406 L323.4611,22.1406 Q323.1017,19.6719 321.883,19.6719 Q320.1486,19.6719 320.1486,24.3594 Q320.1486,29 321.8986,29 Q323.3361,29 323.4923,25.9844 L325.6173,25.9844 Z "/><text fill="#000000" font-family="sans-serif" font-size="12" lengthAdjust="spacingAndGlyphs" textLength="60" x="336.2267" y="28.5586">eventQueue</text><line style="stroke: #A80036; stroke-width: 1.5;" x1="308.2267" x2="398.2267" y1="40" y2="40"/><line style="stroke: #A80036; stroke-width: 1.5;" x1="308.2267" x2="398.2267" y1="48" y2="48"/><!--class game--><rect fill="#FEFECE" filter="url(#f1dfev0t61y569)" height="48" id="game" style="stroke: #A80036; stroke-width: 1.5;" width="56" x="31.2267" y="131"/><ellipse cx="46.2267" cy="147" fill="#ADD1B2" rx="11" ry="11" style="stroke: #A80036; stroke-width: 1.0;"/><path d="M49.6173,148.9844 Q49.1955,153.9688 45.883,153.9688 Q43.9298,153.9688 42.883,151.9688 Q42.008,150.2969 42.008,147.3594 Q42.008,144.3438 42.9767,142.5781 Q43.9767,140.7031 45.883,140.7031 Q48.9142,140.7031 49.5392,145.1406 L47.4611,145.1406 Q47.1017,142.6719 45.883,142.6719 Q44.1486,142.6719 44.1486,147.3594 Q44.1486,152 45.8986,152 Q47.3361,152 47.4923,148.9844 L49.6173,148.9844 Z "/><text fill="#000000" font-family="sans-serif" font-size="12" lengthAdjust="spacingAndGlyphs" textLength="24" x="60.2267" y="151.5586">game</text><line style="stroke: #A80036; stroke-width: 1.5;" x1="32.2267" x2="86.2267" y1="163" y2="163"/><line style="stroke: #A80036; stroke-width: 1.5;" x1="32.2267" x2="86.2267" y1="171" y2="171"/><!--class spawner--><rect fill="#FEFECE" filter="url(#f1dfev0t61y569)" height="48" id="spawner" style="stroke: #A80036; stroke-width: 1.5;" width="74" x="216.2267" y="131"/><ellipse cx="231.2267" cy="147" fill="#ADD1B2" rx="11" ry="11" style="stroke: #A80036; stroke-width: 1.0;"/><path d="M234.6173,148.9844 Q234.1955,153.9688 230.883,153.9688 Q228.9298,153.9688 227.883,151.9688 Q227.008,150.2969 227.008,147.3594 Q227.008,144.3438 227.9767,142.5781 Q228.9767,140.7031 230.883,140.7031 Q233.9142,140.7031 234.5392,145.1406 L232.4611,145.1406 Q232.1017,142.6719 230.883,142.6719 Q229.1486,142.6719 229.1486,147.3594 Q229.1486,152 230.8986,152 Q232.3361,152 232.4923,148.9844 L234.6173,148.9844 Z "/><text fill="#000000" font-family="sans-serif" font-size="12" lengthAdjust="spacingAndGlyphs" textLength="42" x="245.2267" y="151.5586">spawner</text><line style="stroke: #A80036; stroke-width: 1.5;" x1="217.2267" x2="289.2267" y1="163" y2="163"/><line style="stroke: #A80036; stroke-width: 1.5;" x1="217.2267" x2="289.2267" y1="171" y2="171"/><!--class factory--><rect fill="#FEFECE" filter="url(#f1dfev0t61y569)" height="48" id="factory" style="stroke: #A80036; stroke-width: 1.5;" width="74" x="412.2267" y="131"/><ellipse cx="427.2267" cy="147" fill="#ADD1B2" rx="11" ry="11" style="stroke: #A80036; stroke-width: 1.0;"/><path d="M430.6173,148.9844 Q430.1955,153.9688 426.883,153.9688 Q424.9298,153.9688 423.883,151.9688 Q423.008,150.2969 423.008,147.3594 Q423.008,144.3438 423.9767,142.5781 Q424.9767,140.7031 426.883,140.7031 Q429.9142,140.7031 430.5392,145.1406 L428.4611,145.1406 Q428.1017,142.6719 426.883,142.6719 Q425.1486,142.6719 425.1486,147.3594 Q425.1486,152 426.8986,152 Q428.3361,152 428.4923,148.9844 L430.6173,148.9844 Z "/><text fill="#000000" font-family="sans-serif" font-size="12" lengthAdjust="spacingAndGlyphs" textLength="42" x="441.2267" y="151.5586">factory</text><line style="stroke: #A80036; stroke-width: 1.5;" x1="413.2267" x2="485.2267" y1="163" y2="163"/><line style="stroke: #A80036; stroke-width: 1.5;" x1="413.2267" x2="485.2267" y1="171" y2="171"/><!--class balloon--><rect fill="#FEFECE" filter="url(#f1dfev0t61y569)" height="48" id="balloon" style="stroke: #A80036; stroke-width: 1.5;" width="74" x="610.2267" y="131"/><ellipse cx="625.2267" cy="147" fill="#ADD1B2" rx="11" ry="11" style="stroke: #A80036; stroke-width: 1.0;"/><path d="M628.6173,148.9844 Q628.1955,153.9688 624.883,153.9688 Q622.9298,153.9688 621.883,151.9688 Q621.008,150.2969 621.008,147.3594 Q621.008,144.3438 621.9767,142.5781 Q622.9767,140.7031 624.883,140.7031 Q627.9142,140.7031 628.5392,145.1406 L626.4611,145.1406 Q626.1017,142.6719 624.883,142.6719 Q623.1486,142.6719 623.1486,147.3594 Q623.1486,152 624.8986,152 Q626.3361,152 626.4923,148.9844 L628.6173,148.9844 Z "/><text fill="#000000" font-family="sans-serif" font-size="12" lengthAdjust="spacingAndGlyphs" textLength="42" x="639.2267" y="151.5586">balloon</text><line style="stroke: #A80036; stroke-width: 1.5;" x1="611.2267" x2="683.2267" y1="163" y2="163"/><line style="stroke: #A80036; stroke-width: 1.5;" x1="611.2267" x2="683.2267" y1="171" y2="171"/><!--link eventQueue to game--><path d="M307.1273,35.9734 C218.2496,44.1018 30.239,63.7502 11.2267,86 C-1.183,100.5228 11.6499,118.2353 27.1545,132.0779 " fill="none" id="eventQueue-game" style="stroke: #A80036; stroke-width: 1.0;"/><polygon fill="#A80036" points="31.1402,135.5095,26.9299,126.6059,27.3512,132.2471,21.71,132.6683,31.1402,135.5095" style="stroke: #A80036; stroke-width: 1.0;"/><text fill="#000000" font-family="sans-serif" font-size="13" lengthAdjust="spacingAndGlyphs" textLength="49" x="12.2267" y="98.4385">publish</text><!--link game to eventQueue--><path d="M78.202,130.8424 C91.278,115.7882 109.9116,97.2131 130.2267,86 C184.4006,56.0982 254.9385,42.6021 302.0342,36.6118 " fill="none" id="game-eventQueue" style="stroke: #A80036; stroke-width: 1.0;"/><polygon fill="#A80036" points="307.087,35.9864,297.6638,33.1221,302.1249,36.6005,298.6465,41.0616,307.087,35.9864" style="stroke: #A80036; stroke-width: 1.0;"/><text fill="#000000" font-family="sans-serif" font-size="13" lengthAdjust="spacingAndGlyphs" textLength="63" x="131.2267" y="98.4385">subscribe</text><!--link eventQueue to spawner--><path d="M307.079,42.9509 C268.8837,53.0591 219.0411,69.0338 207.2267,86 C197.9068,99.384 205.8424,114.434 217.5871,127.0548 " fill="none" id="eventQueue-spawner" style="stroke: #A80036; stroke-width: 1.0;"/><polygon fill="#A80036" points="221.3395,130.8891,217.9035,121.659,217.8424,127.3156,212.1859,127.2544,221.3395,130.8891" style="stroke: #A80036; stroke-width: 1.0;"/><text fill="#000000" font-family="sans-serif" font-size="13" lengthAdjust="spacingAndGlyphs" textLength="49" x="208.2267" y="98.4385">publish</text><!--link spawner to eventQueue--><path d="M273.0376,130.6326 C289.6023,110.258 313.2328,81.1925 330.5512,59.8909 " fill="none" id="spawner-eventQueue" style="stroke: #A80036; stroke-width: 1.0;"/><polygon fill="#A80036" points="333.7083,56.0076,324.9271,60.4675,330.5541,59.8872,331.1345,65.5142,333.7083,56.0076" style="stroke: #A80036; stroke-width: 1.0;"/><text fill="#000000" font-family="sans-serif" font-size="13" lengthAdjust="spacingAndGlyphs" textLength="63" x="310.2267" y="98.4385">subscribe</text><!--link eventQueue to factory--><path d="M370.1265,56.2931 C379.608,69.6718 391.7968,86.4633 403.2267,101 C409.9646,109.5693 417.5425,118.6686 424.5739,126.9068 " fill="none" id="eventQueue-factory" style="stroke: #A80036; stroke-width: 1.0;"/><polygon fill="#A80036" points="427.9758,130.8758,425.1558,121.4393,424.7219,127.0795,419.0817,126.6455,427.9758,130.8758" style="stroke: #A80036; stroke-width: 1.0;"/><text fill="#000000" font-family="sans-serif" font-size="13" lengthAdjust="spacingAndGlyphs" textLength="49" x="404.2267" y="98.4385">publish</text><!--link factory to eventQueue--><path d="M459.6674,130.7262 C463.9955,116.7196 466.3443,99.3029 458.2267,86 C446.2658,66.3987 424.6678,53.612 404.1569,45.4292 " fill="none" id="factory-eventQueue" style="stroke: #A80036; stroke-width: 1.0;"/><polygon fill="#A80036" points="399.2504,43.5488,406.2228,50.5048,403.9192,45.3382,409.0858,43.0347,399.2504,43.5488" style="stroke: #A80036; stroke-width: 1.0;"/><text fill="#000000" font-family="sans-serif" font-size="13" lengthAdjust="spacingAndGlyphs" textLength="63" x="463.2267" y="98.4385">subscribe</text><!--link eventQueue to balloon--><path d="M399.2941,42.0964 C436.8219,51.1585 490.6931,66.0969 535.2267,86 C560.9219,97.4837 587.8324,113.9007 608.8338,127.8402 " fill="none" id="eventQueue-balloon" style="stroke: #A80036; stroke-width: 1.0;"/><polygon fill="#A80036" points="613.223,130.7745,607.964,122.4472,609.0663,127.9957,603.5179,129.0979,613.223,130.7745" style="stroke: #A80036; stroke-width: 1.0;"/><text fill="#000000" font-family="sans-serif" font-size="13" lengthAdjust="spacingAndGlyphs" textLength="49" x="564.2267" y="98.4385">publish</text><!--link balloon to eventQueue--><path d="M644.4886,130.8473 C641.503,115.7951 635.2637,97.2204 622.2267,86 C590.2072,58.4421 473.4148,43.1483 404.6978,36.3536 " fill="none" id="balloon-eventQueue" style="stroke: #A80036; stroke-width: 1.0;"/><polygon fill="#A80036" points="399.4274,35.8398,407.9968,40.6942,404.4038,36.325,408.7731,32.732,399.4274,35.8398" style="stroke: #A80036; stroke-width: 1.0;"/><text fill="#000000" font-family="sans-serif" font-size="13" lengthAdjust="spacingAndGlyphs" textLength="63" x="634.2267" y="98.4385">subscribe</text><!--
@startuml

class eventQueue {
}

class game {
}

class spawner {
}

class factory {
}

class balloon {
}


eventQueue - -> game    : publish
eventQueue - -> spawner : publish
eventQueue - -> factory : publish
eventQueue - -> balloon : publish

game    - -> eventQueue : subscribe
spawner - -> eventQueue : subscribe
factory - -> eventQueue : subscribe
balloon - -> eventQueue : subscribe



@enduml

PlantUML version 1.2018.02(Sat Mar 10 02:20:44 JST 2018)
(GPL source distribution)
Java Runtime: OpenJDK Runtime Environment
JVM: OpenJDK 64-Bit Server VM
Java Version: 1.8.0_162-b12
Operating System: Linux
OS Version: 4.12.14-1-MANJARO
Default Encoding: UTF-8
Language: en
Country: US
--></g></svg>