<?xml version="1.0" encoding="UTF-8" standalone="no"?><svg xmlns="http://www.w3.org/2000/svg" xmlns:xlink="http://www.w3.org/1999/xlink" contentScriptType="application/ecmascript" contentStyleType="text/css" height="190px" preserveAspectRatio="none" style="width:730px;height:190px;" version="1.1" viewBox="0 0 730 190" width="730px" zoomAndPan="magnify"><defs><filter height="300%" id="f15blvz6pbwrrl" width="300%" x="-1" y="-1"><feGaussianBlur result="blurOut" stdDeviation="2.0"/><feColorMatrix in="blurOut" result="blurOut2" type="matrix" values="0 0 0 0 0 0 0 0 0 0 0 0 0 0 0 0 0 0 .4 0"/><feOffset dx="4.0" dy="4.0" in="blurOut2" result="blurOut3"/><feBlend in="SourceGraphic" in2="blurOut3" mode="normal"/></filter></defs><g><!--class eventQueue--><rect fill="#FEFECE" filter="url(#f15blvz6pbwrrl)" height="48" id="eventQueue" style="stroke: #A80036; stroke-width: 1.5;" width="92" x="321" y="8"/><ellipse cx="336" cy="24" fill="#ADD1B2" rx="11" ry="11" style="stroke: #A80036; stroke-width: 1.0;"/><path d="M339.3906,25.9844 Q338.9688,30.9688 335.6563,30.9688 Q333.7031,30.9688 332.6563,28.9688 Q331.7813,27.2969 331.7813,24.3594 Q331.7813,21.3438 332.75,19.5781 Q333.75,17.7031 335.6563,17.7031 Q338.6875,17.7031 339.3125,22.1406 L337.2344,22.1406 Q336.875,19.6719 335.6563,19.6719 Q333.9219,19.6719 333.9219,24.3594 Q333.9219,29 335.6719,29 Q337.1094,29 337.2656,25.9844 L339.3906,25.9844 Z "/><text fill="#000000" font-family="sans-serif" font-size="12" lengthAdjust="spacingAndGlyphs" textLength="60" x="350" y="28.5586">eventQueue</text><line style="stroke: #A80036; stroke-width: 1.5;" x1="322" x2="412" y1="40" y2="40"/><line style="stroke: #A80036; stroke-width: 1.5;" x1="322" x2="412" y1="48" y2="48"/><!--class game--><rect fill="#FEFECE" filter="url(#f15blvz6pbwrrl)" height="48" id="game" style="stroke: #A80036; stroke-width: 1.5;" width="56" x="6" y="131"/><ellipse cx="21" cy="147" fill="#ADD1B2" rx="11" ry="11" style="stroke: #A80036; stroke-width: 1.0;"/><path d="M24.3906,148.9844 Q23.9688,153.9688 20.6563,153.9688 Q18.7031,153.9688 17.6563,151.9688 Q16.7813,150.2969 16.7813,147.3594 Q16.7813,144.3438 17.75,142.5781 Q18.75,140.7031 20.6563,140.7031 Q23.6875,140.7031 24.3125,145.1406 L22.2344,145.1406 Q21.875,142.6719 20.6563,142.6719 Q18.9219,142.6719 18.9219,147.3594 Q18.9219,152 20.6719,152 Q22.1094,152 22.2656,148.9844 L24.3906,148.9844 Z "/><text fill="#000000" font-family="sans-serif" font-size="12" lengthAdjust="spacingAndGlyphs" textLength="24" x="35" y="151.5586">game</text><line style="stroke: #A80036; stroke-width: 1.5;" x1="7" x2="61" y1="163" y2="163"/><line style="stroke: #A80036; stroke-width: 1.5;" x1="7" x2="61" y1="171" y2="171"/><!--class spawner--><rect fill="#FEFECE" filter="url(#f15blvz6pbwrrl)" height="48" id="spawner" style="stroke: #A80036; stroke-width: 1.5;" width="74" x="118" y="131"/><ellipse cx="133" cy="147" fill="#ADD1B2" rx="11" ry="11" style="stroke: #A80036; stroke-width: 1.0;"/><path d="M136.3906,148.9844 Q135.9688,153.9688 132.6563,153.9688 Q130.7031,153.9688 129.6563,151.9688 Q128.7813,150.2969 128.7813,147.3594 Q128.7813,144.3438 129.75,142.5781 Q130.75,140.7031 132.6563,140.7031 Q135.6875,140.7031 136.3125,145.1406 L134.2344,145.1406 Q133.875,142.6719 132.6563,142.6719 Q130.9219,142.6719 130.9219,147.3594 Q130.9219,152 132.6719,152 Q134.1094,152 134.2656,148.9844 L136.3906,148.9844 Z "/><text fill="#000000" font-family="sans-serif" font-size="12" lengthAdjust="spacingAndGlyphs" textLength="42" x="147" y="151.5586">spawner</text><line style="stroke: #A80036; stroke-width: 1.5;" x1="119" x2="191" y1="163" y2="163"/><line style="stroke: #A80036; stroke-width: 1.5;" x1="119" x2="191" y1="171" y2="171"/><!--class factory--><rect fill="#FEFECE" filter="url(#f15blvz6pbwrrl)" height="48" id="factory" style="stroke: #A80036; stroke-width: 1.5;" width="74" x="244" y="131"/><ellipse cx="259" cy="147" fill="#ADD1B2" rx="11" ry="11" style="stroke: #A80036; stroke-width: 1.0;"/><path d="M262.3906,148.9844 Q261.9688,153.9688 258.6563,153.9688 Q256.7031,153.9688 255.6563,151.9688 Q254.7813,150.2969 254.7813,147.3594 Q254.7813,144.3438 255.75,142.5781 Q256.75,140.7031 258.6563,140.7031 Q261.6875,140.7031 262.3125,145.1406 L260.2344,145.1406 Q259.875,142.6719 258.6563,142.6719 Q256.9219,142.6719 256.9219,147.3594 Q256.9219,152 258.6719,152 Q260.1094,152 260.2656,148.9844 L262.3906,148.9844 Z "/><text fill="#000000" font-family="sans-serif" font-size="12" lengthAdjust="spacingAndGlyphs" textLength="42" x="273" y="151.5586">factory</text><line style="stroke: #A80036; stroke-width: 1.5;" x1="245" x2="317" y1="163" y2="163"/><line style="stroke: #A80036; stroke-width: 1.5;" x1="245" x2="317" y1="171" y2="171"/><!--class balloon--><rect fill="#FEFECE" filter="url(#f15blvz6pbwrrl)" height="48" id="balloon" style="stroke: #A80036; stroke-width: 1.5;" width="74" x="372" y="131"/><ellipse cx="387" cy="147" fill="#ADD1B2" rx="11" ry="11" style="stroke: #A80036; stroke-width: 1.0;"/><path d="M390.3906,148.9844 Q389.9688,153.9688 386.6563,153.9688 Q384.7031,153.9688 383.6563,151.9688 Q382.7813,150.2969 382.7813,147.3594 Q382.7813,144.3438 383.75,142.5781 Q384.75,140.7031 386.6563,140.7031 Q389.6875,140.7031 390.3125,145.1406 L388.2344,145.1406 Q387.875,142.6719 386.6563,142.6719 Q384.9219,142.6719 384.9219,147.3594 Q384.9219,152 386.6719,152 Q388.1094,152 388.2656,148.9844 L390.3906,148.9844 Z "/><text fill="#000000" font-family="sans-serif" font-size="12" lengthAdjust="spacingAndGlyphs" textLength="42" x="401" y="151.5586">balloon</text><line style="stroke: #A80036; stroke-width: 1.5;" x1="373" x2="445" y1="163" y2="163"/><line style="stroke: #A80036; stroke-width: 1.5;" x1="373" x2="445" y1="171" y2="171"/><!--class scorer--><rect fill="#FEFECE" filter="url(#f15blvz6pbwrrl)" height="48" id="scorer" style="stroke: #A80036; stroke-width: 1.5;" width="68" x="501" y="131"/><ellipse cx="516" cy="147" fill="#ADD1B2" rx="11" ry="11" style="stroke: #A80036; stroke-width: 1.0;"/><path d="M519.3906,148.9844 Q518.9688,153.9688 515.6563,153.9688 Q513.7031,153.9688 512.6563,151.9688 Q511.7813,150.2969 511.7813,147.3594 Q511.7813,144.3438 512.75,142.5781 Q513.75,140.7031 515.6563,140.7031 Q518.6875,140.7031 519.3125,145.1406 L517.2344,145.1406 Q516.875,142.6719 515.6563,142.6719 Q513.9219,142.6719 513.9219,147.3594 Q513.9219,152 515.6719,152 Q517.1094,152 517.2656,148.9844 L519.3906,148.9844 Z "/><text fill="#000000" font-family="sans-serif" font-size="12" lengthAdjust="spacingAndGlyphs" textLength="36" x="530" y="151.5586">scorer</text><line style="stroke: #A80036; stroke-width: 1.5;" x1="502" x2="568" y1="163" y2="163"/><line style="stroke: #A80036; stroke-width: 1.5;" x1="502" x2="568" y1="171" y2="171"/><!--class control--><rect fill="#FEFECE" filter="url(#f15blvz6pbwrrl)" height="48" id="control" style="stroke: #A80036; stroke-width: 1.5;" width="74" x="645" y="131"/><ellipse cx="660" cy="147" fill="#ADD1B2" rx="11" ry="11" style="stroke: #A80036; stroke-width: 1.0;"/><path d="M663.3906,148.9844 Q662.9688,153.9688 659.6563,153.9688 Q657.7031,153.9688 656.6563,151.9688 Q655.7813,150.2969 655.7813,147.3594 Q655.7813,144.3438 656.75,142.5781 Q657.75,140.7031 659.6563,140.7031 Q662.6875,140.7031 663.3125,145.1406 L661.2344,145.1406 Q660.875,142.6719 659.6563,142.6719 Q657.9219,142.6719 657.9219,147.3594 Q657.9219,152 659.6719,152 Q661.1094,152 661.2656,148.9844 L663.3906,148.9844 Z "/><text fill="#000000" font-family="sans-serif" font-size="12" lengthAdjust="spacingAndGlyphs" textLength="42" x="674" y="151.5586">control</text><line style="stroke: #A80036; stroke-width: 1.5;" x1="646" x2="718" y1="163" y2="163"/><line style="stroke: #A80036; stroke-width: 1.5;" x1="646" x2="718" y1="171" y2="171"/><!--link eventQueue to game--><path d="M320.6579,35.8408 C230.2587,43.8037 37.477,63.2776 18,86 C8.5915,96.9762 11.1986,112.4227 16.7696,125.9189 " fill="none" id="eventQueue-game" style="stroke: #A80036; stroke-width: 1.0;"/><polygon fill="#A80036" points="18.9394,130.7911,18.932,120.9422,16.9053,126.2236,11.624,124.1968,18.9394,130.7911" style="stroke: #A80036; stroke-width: 1.0;"/><text fill="#000000" font-family="sans-serif" font-size="13" lengthAdjust="spacingAndGlyphs" textLength="21" x="19" y="98.4385">pub</text><!--link game to eventQueue--><path d="M53.2227,130.9635 C66.6857,115.7611 85.9741,96.9733 107,86 C142.7005,67.3682 250.7559,49.0183 315.7883,39.2422 " fill="none" id="game-eventQueue" style="stroke: #A80036; stroke-width: 1.0;"/><polygon fill="#A80036" points="320.7813,38.4958,311.2887,35.8708,315.8363,39.2352,312.4718,43.7828,320.7813,38.4958" style="stroke: #A80036; stroke-width: 1.0;"/><text fill="#000000" font-family="sans-serif" font-size="13" lengthAdjust="spacingAndGlyphs" textLength="21" x="108" y="98.4385">sub</text><!--link eventQueue to spawner--><path d="M320.8766,36.5406 C262.1214,43.3876 165.5824,58.5676 144,86 C135.1822,97.2079 136.7829,112.6733 141.0929,126.1222 " fill="none" id="eventQueue-spawner" style="stroke: #A80036; stroke-width: 1.0;"/><polygon fill="#A80036" points="142.789,130.9742,143.595,121.1584,141.139,126.2543,136.0431,123.7983,142.789,130.9742" style="stroke: #A80036; stroke-width: 1.0;"/><text fill="#000000" font-family="sans-serif" font-size="13" lengthAdjust="spacingAndGlyphs" textLength="21" x="145" y="98.4385">pub</text><!--link spawner to eventQueue--><path d="M178.2413,130.986 C193.1663,116.5522 213.5303,98.601 234,86 C259.5726,70.2576 290.5387,57.3709 316.1549,48.1394 " fill="none" id="spawner-eventQueue" style="stroke: #A80036; stroke-width: 1.0;"/><polygon fill="#A80036" points="320.8732,46.4584,311.0527,45.7111,316.1632,48.1365,313.7378,53.247,320.8732,46.4584" style="stroke: #A80036; stroke-width: 1.0;"/><text fill="#000000" font-family="sans-serif" font-size="13" lengthAdjust="spacingAndGlyphs" textLength="21" x="235" y="98.4385">sub</text><!--link eventQueue to factory--><path d="M320.8522,45.9277 C301.5877,54.2777 281.1345,67.0578 270,86 C262.9995,97.9094 264.4043,112.8777 268.1214,125.8265 " fill="none" id="eventQueue-factory" style="stroke: #A80036; stroke-width: 1.0;"/><polygon fill="#A80036" points="269.7097,130.8645,270.8185,121.0783,268.2063,126.0959,263.1887,123.4837,269.7097,130.8645" style="stroke: #A80036; stroke-width: 1.0;"/><text fill="#000000" font-family="sans-serif" font-size="13" lengthAdjust="spacingAndGlyphs" textLength="21" x="271" y="98.4385">pub</text><!--link factory to eventQueue--><path d="M298.0374,130.6326 C312.2239,110.3426 332.4367,81.4336 347.3134,60.1565 " fill="none" id="factory-eventQueue" style="stroke: #A80036; stroke-width: 1.0;"/><polygon fill="#A80036" points="350.2142,56.0076,341.7788,61.0913,347.3491,60.1053,348.3351,65.6755,350.2142,56.0076" style="stroke: #A80036; stroke-width: 1.0;"/><text fill="#000000" font-family="sans-serif" font-size="13" lengthAdjust="spacingAndGlyphs" textLength="21" x="330" y="98.4385">sub</text><!--link eventQueue to balloon--><path d="M375.1977,56.0076 C382.0048,75.9425 391.7139,104.3763 398.9814,125.6597 " fill="none" id="eventQueue-balloon" style="stroke: #A80036; stroke-width: 1.0;"/><polygon fill="#A80036" points="400.6794,130.6326,401.5565,120.8229,399.0637,125.9009,393.9857,123.408,400.6794,130.6326" style="stroke: #A80036; stroke-width: 1.0;"/><text fill="#000000" font-family="sans-serif" font-size="13" lengthAdjust="spacingAndGlyphs" textLength="21" x="391" y="98.4385">pub</text><!--link balloon to eventQueue--><path d="M419.5719,130.9634 C424.0022,117.3594 426.9094,100.2665 421,86 C416.9886,76.3156 410.3044,67.4625 402.9809,59.8508 " fill="none" id="balloon-eventQueue" style="stroke: #A80036; stroke-width: 1.0;"/><polygon fill="#A80036" points="399.3433,56.2158,402.882,65.407,402.88,59.7501,408.5369,59.7482,399.3433,56.2158" style="stroke: #A80036; stroke-width: 1.0;"/><text fill="#000000" font-family="sans-serif" font-size="13" lengthAdjust="spacingAndGlyphs" textLength="21" x="425" y="98.4385">sub</text><!--link eventQueue to scorer--><path d="M409.5304,56.2053 C424.2653,65.0824 440.672,75.5303 455,86 C472.3264,98.6607 490.5256,114.1613 505.1807,127.2614 " fill="none" id="eventQueue-scorer" style="stroke: #A80036; stroke-width: 1.0;"/><polygon fill="#A80036" points="509.2166,130.8883,505.1964,121.8973,505.4977,127.5461,499.8489,127.8475,509.2166,130.8883" style="stroke: #A80036; stroke-width: 1.0;"/><text fill="#000000" font-family="sans-serif" font-size="13" lengthAdjust="spacingAndGlyphs" textLength="21" x="474" y="98.4385">pub</text><!--link scorer to eventQueue--><path d="M529.1589,130.8714 C524.5098,116.2113 516.6361,98.0583 504,86 C480.3964,63.4758 446.2804,49.989 417.9986,42.1268 " fill="none" id="scorer-eventQueue" style="stroke: #A80036; stroke-width: 1.0;"/><polygon fill="#A80036" points="413.1519,40.818,420.7978,47.0261,417.979,42.1216,422.8835,39.3028,413.1519,40.818" style="stroke: #A80036; stroke-width: 1.0;"/><text fill="#000000" font-family="sans-serif" font-size="13" lengthAdjust="spacingAndGlyphs" textLength="21" x="516" y="98.4385">sub</text><!--link eventQueue to control--><path d="M413.0052,43.4756 C449.62,53.1791 501.8609,68.3061 546,86 C578.5236,99.0376 613.7667,117.0358 640.2253,131.3813 " fill="none" id="eventQueue-control" style="stroke: #A80036; stroke-width: 1.0;"/><polygon fill="#A80036" points="644.7269,133.8327,638.7359,126.0155,640.3358,131.4414,634.9099,133.0413,644.7269,133.8327" style="stroke: #A80036; stroke-width: 1.0;"/><text fill="#000000" font-family="sans-serif" font-size="13" lengthAdjust="spacingAndGlyphs" textLength="21" x="577" y="98.4385">pub</text><!--link control to eventQueue--><path d="M661.7537,130.7556 C647.8581,115.6657 628.1583,97.0835 607,86 C546.8328,54.4822 468.7963,41.2839 418.3139,35.8075 " fill="none" id="control-eventQueue" style="stroke: #A80036; stroke-width: 1.0;"/><polygon fill="#A80036" points="413.212,35.2701,421.7435,40.1908,418.1845,35.7938,422.5815,32.2348,413.212,35.2701" style="stroke: #A80036; stroke-width: 1.0;"/><text fill="#000000" font-family="sans-serif" font-size="13" lengthAdjust="spacingAndGlyphs" textLength="21" x="628" y="98.4385">sub</text><!--
@startuml

class eventQueue {
}

class game {
}

class spawner {
}

class factory {
}

class balloon {
}

class scorer {
}

eventQueue - -> game    : pub
eventQueue - -> spawner : pub
eventQueue - -> factory : pub
eventQueue - -> balloon : pub
eventQueue - -> scorer  : pub
eventQueue - -> control : pub

game    - -> eventQueue : sub
spawner - -> eventQueue : sub
factory - -> eventQueue : sub
balloon - -> eventQueue : sub
scorer  - -> eventQueue : sub
control - -> eventQueue : sub

@enduml

PlantUML version 1.2018.02(Sat Mar 10 02:20:44 JST 2018)
(GPL source distribution)
Java Runtime: OpenJDK Runtime Environment
JVM: OpenJDK 64-Bit Server VM
Java Version: 1.8.0_162-b12
Operating System: Linux
OS Version: 4.12.14-1-MANJARO
Default Encoding: UTF-8
Language: en
Country: US
--></g></svg>