<?xml version="1.0" encoding="UTF-8" standalone="no"?><svg xmlns="http://www.w3.org/2000/svg" xmlns:xlink="http://www.w3.org/1999/xlink" contentScriptType="application/ecmascript" contentStyleType="text/css" height="255px" preserveAspectRatio="none" style="width:93px;height:255px;" version="1.1" viewBox="0 0 93 255" width="93px" zoomAndPan="magnify"><defs><filter height="300%" id="f1hz19z7w6cnot" width="300%" x="-1" y="-1"><feGaussianBlur result="blurOut" stdDeviation="2.0"/><feColorMatrix in="blurOut" result="blurOut2" type="matrix" values="0 0 0 0 0 0 0 0 0 0 0 0 0 0 0 0 0 0 .4 0"/><feOffset dx="4.0" dy="4.0" in="blurOut2" result="blurOut3"/><feBlend in="SourceGraphic" in2="blurOut3" mode="normal"/></filter></defs><g><ellipse cx="54" cy="18" fill="#000000" filter="url(#f1hz19z7w6cnot)" rx="10" ry="10" style="stroke: none; stroke-width: 1.0;"/><rect fill="#FEFECE" filter="url(#f1hz19z7w6cnot)" height="32" rx="12.5" ry="12.5" style="stroke: #A80036; stroke-width: 1.5;" width="50" x="29" y="68"/><text fill="#000000" font-family="sans-serif" font-size="12" lengthAdjust="spacingAndGlyphs" textLength="30" x="39" y="88.5586">title</text><rect fill="#FEFECE" filter="url(#f1hz19z7w6cnot)" height="32" rx="12.5" ry="12.5" style="stroke: #A80036; stroke-width: 1.5;" width="44" x="6" y="140"/><text fill="#000000" font-family="sans-serif" font-size="12" lengthAdjust="spacingAndGlyphs" textLength="24" x="16" y="160.5586">game</text><rect fill="#FEFECE" filter="url(#f1hz19z7w6cnot)" height="32" rx="12.5" ry="12.5" style="stroke: #A80036; stroke-width: 1.5;" width="56" x="26" y="212"/><text fill="#000000" font-family="sans-serif" font-size="12" lengthAdjust="spacingAndGlyphs" textLength="36" x="36" y="232.5586">result</text><!--link start to title--><path d="M54,28.024 C54,37.2179 54,51.1353 54,62.7922 " fill="none" id="start-title" style="stroke: #A80036; stroke-width: 1.0;"/><polygon fill="#A80036" points="54,67.964,58,58.964,54,62.964,50,58.964,54,67.964" style="stroke: #A80036; stroke-width: 1.0;"/><!--link title to game--><path d="M48.1002,100.3379 C44.4103,110.5562 39.6194,123.8231 35.6406,134.8415 " fill="none" id="title-game" style="stroke: #A80036; stroke-width: 1.0;"/><polygon fill="#A80036" points="33.8765,139.7267,40.6956,132.6204,35.5748,135.024,33.1712,129.9031,33.8765,139.7267" style="stroke: #A80036; stroke-width: 1.0;"/><!--link game to result--><path d="M33.8998,172.3379 C37.5897,182.5562 42.3806,195.8231 46.3594,206.8415 " fill="none" id="game-result" style="stroke: #A80036; stroke-width: 1.0;"/><polygon fill="#A80036" points="48.1235,211.7267,48.8288,201.9031,46.4252,207.024,41.3044,204.6204,48.1235,211.7267" style="stroke: #A80036; stroke-width: 1.0;"/><!--link result to title--><path d="M56.1904,211.8629 C57.5929,200.6945 59.2802,185.4742 60,172 C60.7586,157.798 60.7586,154.202 60,140 C59.3871,128.5258 58.0725,115.7855 56.8297,105.3594 " fill="none" id="result-title" style="stroke: #A80036; stroke-width: 1.0;"/><polygon fill="#A80036" points="56.1904,100.1371,53.3137,109.5565,56.798,105.1,61.2544,108.5843,56.1904,100.1371" style="stroke: #A80036; stroke-width: 1.0;"/><!--
@startuml

(*)      - -> "title"
"title"  - -> "game"
"game"   - -> "result"
"result" - -> "title"

@enduml

PlantUML version 1.2018.02(Sat Mar 10 02:20:44 JST 2018)
(GPL source distribution)
Java Runtime: OpenJDK Runtime Environment
JVM: OpenJDK 64-Bit Server VM
Java Version: 1.8.0_162-b12
Operating System: Linux
OS Version: 4.12.14-1-MANJARO
Default Encoding: UTF-8
Language: en
Country: US
--></g></svg>