<?xml version="1.0" encoding="UTF-8" standalone="no"?><svg xmlns="http://www.w3.org/2000/svg" xmlns:xlink="http://www.w3.org/1999/xlink" contentScriptType="application/ecmascript" contentStyleType="text/css" height="67px" preserveAspectRatio="none" style="width:73px;height:67px;" version="1.1" viewBox="0 0 73 67" width="73px" zoomAndPan="magnify"><defs><filter height="300%" id="ftb94i94s7ilk" width="300%" x="-1" y="-1"><feGaussianBlur result="blurOut" stdDeviation="2.0"/><feColorMatrix in="blurOut" result="blurOut2" type="matrix" values="0 0 0 0 0 0 0 0 0 0 0 0 0 0 0 0 0 0 .4 0"/><feOffset dx="4.0" dy="4.0" in="blurOut2" result="blurOut3"/><feBlend in="SourceGraphic" in2="blurOut3" mode="normal"/></filter></defs><g><!--class game--><rect fill="#FEFECE" filter="url(#ftb94i94s7ilk)" height="48" id="game" style="stroke: #A80036; stroke-width: 1.5;" width="56" x="6" y="8"/><ellipse cx="21" cy="24" fill="#ADD1B2" rx="11" ry="11" style="stroke: #A80036; stroke-width: 1.0;"/><path d="M24.3906,25.9844 Q23.9688,30.9688 20.6563,30.9688 Q18.7031,30.9688 17.6563,28.9688 Q16.7813,27.2969 16.7813,24.3594 Q16.7813,21.3438 17.75,19.5781 Q18.75,17.7031 20.6563,17.7031 Q23.6875,17.7031 24.3125,22.1406 L22.2344,22.1406 Q21.875,19.6719 20.6563,19.6719 Q18.9219,19.6719 18.9219,24.3594 Q18.9219,29 20.6719,29 Q22.1094,29 22.2656,25.9844 L24.3906,25.9844 Z "/><text fill="#000000" font-family="sans-serif" font-size="12" lengthAdjust="spacingAndGlyphs" textLength="24" x="35" y="28.5586">game</text><line style="stroke: #A80036; stroke-width: 1.5;" x1="7" x2="61" y1="40" y2="40"/><line style="stroke: #A80036; stroke-width: 1.5;" x1="7" x2="61" y1="48" y2="48"/><!--
@startuml

class game {
}

@enduml

PlantUML version 1.2018.02(Sat Mar 10 02:20:44 JST 2018)
(GPL source distribution)
Java Runtime: OpenJDK Runtime Environment
JVM: OpenJDK 64-Bit Server VM
Java Version: 1.8.0_162-b12
Operating System: Linux
OS Version: 4.12.14-1-MANJARO
Default Encoding: UTF-8
Language: en
Country: US
--></g></svg>