<?xml version="1.0" encoding="UTF-8" standalone="no"?><svg xmlns="http://www.w3.org/2000/svg" xmlns:xlink="http://www.w3.org/1999/xlink" contentScriptType="application/ecmascript" contentStyleType="text/css" height="126px" preserveAspectRatio="none" style="width:527px;height:126px;" version="1.1" viewBox="0 0 527 126" width="527px" zoomAndPan="magnify"><defs><filter height="300%" id="f9e4ecltke382" width="300%" x="-1" y="-1"><feGaussianBlur result="blurOut" stdDeviation="2.0"/><feColorMatrix in="blurOut" result="blurOut2" type="matrix" values="0 0 0 0 0 0 0 0 0 0 0 0 0 0 0 0 0 0 .4 0"/><feOffset dx="4.0" dy="4.0" in="blurOut2" result="blurOut3"/><feBlend in="SourceGraphic" in2="blurOut3" mode="normal"/></filter></defs><g><!--class game--><rect fill="#FEFECE" filter="url(#f9e4ecltke382)" height="48" id="game" style="stroke: #A80036; stroke-width: 1.5;" width="56" x="6" y="67"/><ellipse cx="21" cy="83" fill="#ADD1B2" rx="11" ry="11" style="stroke: #A80036; stroke-width: 1.0;"/><path d="M24.3906,84.9844 Q23.9688,89.9688 20.6563,89.9688 Q18.7031,89.9688 17.6563,87.9688 Q16.7813,86.2969 16.7813,83.3594 Q16.7813,80.3438 17.75,78.5781 Q18.75,76.7031 20.6563,76.7031 Q23.6875,76.7031 24.3125,81.1406 L22.2344,81.1406 Q21.875,78.6719 20.6563,78.6719 Q18.9219,78.6719 18.9219,83.3594 Q18.9219,88 20.6719,88 Q22.1094,88 22.2656,84.9844 L24.3906,84.9844 Z "/><text fill="#000000" font-family="sans-serif" font-size="12" lengthAdjust="spacingAndGlyphs" textLength="24" x="35" y="87.5586">game</text><line style="stroke: #A80036; stroke-width: 1.5;" x1="7" x2="61" y1="99" y2="99"/><line style="stroke: #A80036; stroke-width: 1.5;" x1="7" x2="61" y1="107" y2="107"/><!--class eventQueue--><rect fill="#FEFECE" filter="url(#f9e4ecltke382)" height="48" id="eventQueue" style="stroke: #A80036; stroke-width: 1.5;" width="92" x="97" y="67"/><ellipse cx="112" cy="83" fill="#ADD1B2" rx="11" ry="11" style="stroke: #A80036; stroke-width: 1.0;"/><path d="M115.3906,84.9844 Q114.9688,89.9688 111.6563,89.9688 Q109.7031,89.9688 108.6563,87.9688 Q107.7813,86.2969 107.7813,83.3594 Q107.7813,80.3438 108.75,78.5781 Q109.75,76.7031 111.6563,76.7031 Q114.6875,76.7031 115.3125,81.1406 L113.2344,81.1406 Q112.875,78.6719 111.6563,78.6719 Q109.9219,78.6719 109.9219,83.3594 Q109.9219,88 111.6719,88 Q113.1094,88 113.2656,84.9844 L115.3906,84.9844 Z "/><text fill="#000000" font-family="sans-serif" font-size="12" lengthAdjust="spacingAndGlyphs" textLength="60" x="126" y="87.5586">eventQueue</text><line style="stroke: #A80036; stroke-width: 1.5;" x1="98" x2="188" y1="99" y2="99"/><line style="stroke: #A80036; stroke-width: 1.5;" x1="98" x2="188" y1="107" y2="107"/><!--class spawner--><rect fill="#FEFECE" filter="url(#f9e4ecltke382)" height="48" id="spawner" style="stroke: #A80036; stroke-width: 1.5;" width="74" x="333" y="67"/><ellipse cx="348" cy="83" fill="#ADD1B2" rx="11" ry="11" style="stroke: #A80036; stroke-width: 1.0;"/><path d="M351.3906,84.9844 Q350.9688,89.9688 347.6563,89.9688 Q345.7031,89.9688 344.6563,87.9688 Q343.7813,86.2969 343.7813,83.3594 Q343.7813,80.3438 344.75,78.5781 Q345.75,76.7031 347.6563,76.7031 Q350.6875,76.7031 351.3125,81.1406 L349.2344,81.1406 Q348.875,78.6719 347.6563,78.6719 Q345.9219,78.6719 345.9219,83.3594 Q345.9219,88 347.6719,88 Q349.1094,88 349.2656,84.9844 L351.3906,84.9844 Z "/><text fill="#000000" font-family="sans-serif" font-size="12" lengthAdjust="spacingAndGlyphs" textLength="42" x="362" y="87.5586">spawner</text><line style="stroke: #A80036; stroke-width: 1.5;" x1="334" x2="406" y1="99" y2="99"/><line style="stroke: #A80036; stroke-width: 1.5;" x1="334" x2="406" y1="107" y2="107"/><!--class factory--><rect fill="#FEFECE" filter="url(#f9e4ecltke382)" height="48" id="factory" style="stroke: #A80036; stroke-width: 1.5;" width="74" x="224" y="67"/><ellipse cx="239" cy="83" fill="#ADD1B2" rx="11" ry="11" style="stroke: #A80036; stroke-width: 1.0;"/><path d="M242.3906,84.9844 Q241.9688,89.9688 238.6563,89.9688 Q236.7031,89.9688 235.6563,87.9688 Q234.7813,86.2969 234.7813,83.3594 Q234.7813,80.3438 235.75,78.5781 Q236.75,76.7031 238.6563,76.7031 Q241.6875,76.7031 242.3125,81.1406 L240.2344,81.1406 Q239.875,78.6719 238.6563,78.6719 Q236.9219,78.6719 236.9219,83.3594 Q236.9219,88 238.6719,88 Q240.1094,88 240.2656,84.9844 L242.3906,84.9844 Z "/><text fill="#000000" font-family="sans-serif" font-size="12" lengthAdjust="spacingAndGlyphs" textLength="42" x="253" y="87.5586">factory</text><line style="stroke: #A80036; stroke-width: 1.5;" x1="225" x2="297" y1="99" y2="99"/><line style="stroke: #A80036; stroke-width: 1.5;" x1="225" x2="297" y1="107" y2="107"/><!--class balloon--><rect fill="#FEFECE" filter="url(#f9e4ecltke382)" height="48" id="balloon" style="stroke: #A80036; stroke-width: 1.5;" width="74" x="442" y="67"/><ellipse cx="457" cy="83" fill="#ADD1B2" rx="11" ry="11" style="stroke: #A80036; stroke-width: 1.0;"/><path d="M460.3906,84.9844 Q459.9688,89.9688 456.6563,89.9688 Q454.7031,89.9688 453.6563,87.9688 Q452.7813,86.2969 452.7813,83.3594 Q452.7813,80.3438 453.75,78.5781 Q454.75,76.7031 456.6563,76.7031 Q459.6875,76.7031 460.3125,81.1406 L458.2344,81.1406 Q457.875,78.6719 456.6563,78.6719 Q454.9219,78.6719 454.9219,83.3594 Q454.9219,88 456.6719,88 Q458.1094,88 458.2656,84.9844 L460.3906,84.9844 Z "/><text fill="#000000" font-family="sans-serif" font-size="12" lengthAdjust="spacingAndGlyphs" textLength="42" x="471" y="87.5586">balloon</text><line style="stroke: #A80036; stroke-width: 1.5;" x1="443" x2="515" y1="99" y2="99"/><line style="stroke: #A80036; stroke-width: 1.5;" x1="443" x2="515" y1="107" y2="107"/><!--link game to eventQueue--><path d="M62.1016,104.7769 C71.9686,107.9339 81.8357,109.3209 91.7028,108.9378 " fill="none" id="game-eventQueue" style="stroke: #A80036; stroke-width: 1.0;"/><polygon fill="#A80036" points="96.8626,108.5762,87.605,105.2152,91.8748,108.9258,88.1643,113.1956,96.8626,108.5762" style="stroke: #A80036; stroke-width: 1.0;"/><!--link eventQueue to game--><path d="M96.8626,73.4238 C86.905,72.4145 76.9474,73.2079 66.9898,75.8039 " fill="none" id="eventQueue-game" style="stroke: #A80036; stroke-width: 1.0;"/><polygon fill="#A80036" points="62.1016,77.2231,71.86,78.555,66.9033,75.829,69.6294,70.8723,62.1016,77.2231" style="stroke: #A80036; stroke-width: 1.0;"/><!--link spawner to eventQueue--><path d="M341.8393,66.8097 C330.8706,58.8842 317.7255,51.0719 304.3333,47 C267.9059,35.9241 255.4281,37.0886 218.6667,47 C205.4548,50.5621 192.1755,57.0622 180.5109,63.9927 " fill="none" id="spawner-eventQueue" style="stroke: #A80036; stroke-width: 1.0;"/><polygon fill="#A80036" points="175.9549,66.7695,185.7217,65.5011,180.2244,64.1673,181.5582,58.6699,175.9549,66.7695" style="stroke: #A80036; stroke-width: 1.0;"/><!--link eventQueue to spawner--><path d="M166.9238,66.9112 C183.2472,52.2575 206.2149,34.8912 230.3333,27 C256.6635,18.3851 266.6017,17.6133 292.6667,27 C312.8997,34.2865 331.5953,49.4187 345.5346,63.14 " fill="none" id="eventQueue-spawner" style="stroke: #A80036; stroke-width: 1.0;"/><polygon fill="#A80036" points="349.3374,66.965,345.8286,57.7624,345.8122,63.4192,340.1553,63.4027,349.3374,66.965" style="stroke: #A80036; stroke-width: 1.0;"/><!--link factory to eventQueue--><path d="M223.9233,106.5147 C214.0368,108.7562 204.1503,109.4815 194.2638,108.6905 " fill="none" id="factory-eventQueue" style="stroke: #A80036; stroke-width: 1.0;"/><polygon fill="#A80036" points="189.0938,108.1387,197.6183,113.0716,194.0655,108.6695,198.4676,105.1168,189.0938,108.1387" style="stroke: #A80036; stroke-width: 1.0;"/><!--link eventQueue to factory--><path d="M189.0938,73.8613 C198.9803,72.5417 208.8668,72.7384 218.7533,74.4513 " fill="none" id="eventQueue-factory" style="stroke: #A80036; stroke-width: 1.0;"/><polygon fill="#A80036" points="223.9233,75.4853,215.8825,69.7979,219.0204,74.5047,214.3136,77.6426,223.9233,75.4853" style="stroke: #A80036; stroke-width: 1.0;"/><!--link balloon to eventQueue--><path d="M450.8393,66.8097 C439.8706,58.8842 426.7255,51.0719 413.3333,47 C330.5565,21.8315 302.2023,24.4776 218.6667,47 C205.4548,50.5621 192.1755,57.0622 180.5109,63.9927 " fill="none" id="balloon-eventQueue" style="stroke: #A80036; stroke-width: 1.0;"/><polygon fill="#A80036" points="175.9549,66.7695,185.7217,65.5011,180.2244,64.1673,181.5582,58.6699,175.9549,66.7695" style="stroke: #A80036; stroke-width: 1.0;"/><!--link eventQueue to balloon--><path d="M166.9238,66.9112 C183.2472,52.2575 206.2149,34.8912 230.3333,27 C302.7061,3.3205 330.0227,1.1991 401.6667,27 C421.8997,34.2865 440.5953,49.4187 454.5346,63.14 " fill="none" id="eventQueue-balloon" style="stroke: #A80036; stroke-width: 1.0;"/><polygon fill="#A80036" points="458.3374,66.965,454.8286,57.7624,454.8122,63.4192,449.1553,63.4027,458.3374,66.965" style="stroke: #A80036; stroke-width: 1.0;"/><!--
@startuml

class game {
}

class eventQueue {
}

class spawner {
}

class factory {
}

class balloon {
}


game -> eventQueue
spawner -> eventQueue
factory -> eventQueue
balloon -> eventQueue

eventQueue -> game
eventQueue -> spawner
eventQueue -> factory
eventQueue -> balloon


@enduml

PlantUML version 1.2018.02(Sat Mar 10 02:20:44 JST 2018)
(GPL source distribution)
Java Runtime: OpenJDK Runtime Environment
JVM: OpenJDK 64-Bit Server VM
Java Version: 1.8.0_162-b12
Operating System: Linux
OS Version: 4.12.14-1-MANJARO
Default Encoding: UTF-8
Language: en
Country: US
--></g></svg>